<?xml version="1.0" encoding="utf-8" standalone="no"?>
<!DOCTYPE svg PUBLIC "-//W3C//DTD SVG 1.1//EN"
  "http://www.w3.org/Graphics/SVG/1.1/DTD/svg11.dtd">
<!-- Created with matplotlib (https://matplotlib.org/) -->
<svg height="345.6pt" version="1.1" viewBox="0 0 460.8 345.6" width="460.8pt" xmlns="http://www.w3.org/2000/svg" xmlns:xlink="http://www.w3.org/1999/xlink">
 <defs>
  <style type="text/css">
*{stroke-linecap:butt;stroke-linejoin:round;}
  </style>
 </defs>
 <g id="figure_1">
  <g id="patch_1">
   <path d="M 0 345.6 
L 460.8 345.6 
L 460.8 0 
L 0 0 
z
" style="fill:#ffffff;"/>
  </g>
  <g id="axes_1">
   <g id="patch_2">
    <path d="M 57.6 307.584 
L 414.72 307.584 
L 414.72 41.472 
L 57.6 41.472 
z
" style="fill:#ffffff;"/>
   </g>
   <g id="matplotlib.axis_1">
    <g id="xtick_1">
     <g id="line2d_1">
      <path clip-path="url(#pdf7c541f09)" d="M 73.832727 307.584 
L 73.832727 41.472 
" style="fill:none;stroke:#b0b0b0;stroke-linecap:square;stroke-width:0.8;"/>
     </g>
     <g id="line2d_2">
      <defs>
       <path d="M 0 0 
L 0 3.5 
" id="mcdd2154d9a" style="stroke:#000000;stroke-width:0.8;"/>
      </defs>
      <g>
       <use style="stroke:#000000;stroke-width:0.8;" x="73.832727" xlink:href="#mcdd2154d9a" y="307.584"/>
      </g>
     </g>
     <g id="text_1">
      <!-- 0 -->
      <defs>
       <path d="M 31.78125 66.40625 
Q 24.171875 66.40625 20.328125 58.90625 
Q 16.5 51.421875 16.5 36.375 
Q 16.5 21.390625 20.328125 13.890625 
Q 24.171875 6.390625 31.78125 6.390625 
Q 39.453125 6.390625 43.28125 13.890625 
Q 47.125 21.390625 47.125 36.375 
Q 47.125 51.421875 43.28125 58.90625 
Q 39.453125 66.40625 31.78125 66.40625 
z
M 31.78125 74.21875 
Q 44.046875 74.21875 50.515625 64.515625 
Q 56.984375 54.828125 56.984375 36.375 
Q 56.984375 17.96875 50.515625 8.265625 
Q 44.046875 -1.421875 31.78125 -1.421875 
Q 19.53125 -1.421875 13.0625 8.265625 
Q 6.59375 17.96875 6.59375 36.375 
Q 6.59375 54.828125 13.0625 64.515625 
Q 19.53125 74.21875 31.78125 74.21875 
z
" id="DejaVuSans-48"/>
      </defs>
      <g transform="translate(70.651477 322.182437)scale(0.1 -0.1)">
       <use xlink:href="#DejaVuSans-48"/>
      </g>
     </g>
    </g>
    <g id="xtick_2">
     <g id="line2d_3">
      <path clip-path="url(#pdf7c541f09)" d="M 128.122785 307.584 
L 128.122785 41.472 
" style="fill:none;stroke:#b0b0b0;stroke-linecap:square;stroke-width:0.8;"/>
     </g>
     <g id="line2d_4">
      <g>
       <use style="stroke:#000000;stroke-width:0.8;" x="128.122785" xlink:href="#mcdd2154d9a" y="307.584"/>
      </g>
     </g>
     <g id="text_2">
      <!-- 50 -->
      <defs>
       <path d="M 10.796875 72.90625 
L 49.515625 72.90625 
L 49.515625 64.59375 
L 19.828125 64.59375 
L 19.828125 46.734375 
Q 21.96875 47.46875 24.109375 47.828125 
Q 26.265625 48.1875 28.421875 48.1875 
Q 40.625 48.1875 47.75 41.5 
Q 54.890625 34.8125 54.890625 23.390625 
Q 54.890625 11.625 47.5625 5.09375 
Q 40.234375 -1.421875 26.90625 -1.421875 
Q 22.3125 -1.421875 17.546875 -0.640625 
Q 12.796875 0.140625 7.71875 1.703125 
L 7.71875 11.625 
Q 12.109375 9.234375 16.796875 8.0625 
Q 21.484375 6.890625 26.703125 6.890625 
Q 35.15625 6.890625 40.078125 11.328125 
Q 45.015625 15.765625 45.015625 23.390625 
Q 45.015625 31 40.078125 35.4375 
Q 35.15625 39.890625 26.703125 39.890625 
Q 22.75 39.890625 18.8125 39.015625 
Q 14.890625 38.140625 10.796875 36.28125 
z
" id="DejaVuSans-53"/>
      </defs>
      <g transform="translate(121.760285 322.182437)scale(0.1 -0.1)">
       <use xlink:href="#DejaVuSans-53"/>
       <use x="63.623047" xlink:href="#DejaVuSans-48"/>
      </g>
     </g>
    </g>
    <g id="xtick_3">
     <g id="line2d_5">
      <path clip-path="url(#pdf7c541f09)" d="M 182.412843 307.584 
L 182.412843 41.472 
" style="fill:none;stroke:#b0b0b0;stroke-linecap:square;stroke-width:0.8;"/>
     </g>
     <g id="line2d_6">
      <g>
       <use style="stroke:#000000;stroke-width:0.8;" x="182.412843" xlink:href="#mcdd2154d9a" y="307.584"/>
      </g>
     </g>
     <g id="text_3">
      <!-- 100 -->
      <defs>
       <path d="M 12.40625 8.296875 
L 28.515625 8.296875 
L 28.515625 63.921875 
L 10.984375 60.40625 
L 10.984375 69.390625 
L 28.421875 72.90625 
L 38.28125 72.90625 
L 38.28125 8.296875 
L 54.390625 8.296875 
L 54.390625 0 
L 12.40625 0 
z
" id="DejaVuSans-49"/>
      </defs>
      <g transform="translate(172.869093 322.182437)scale(0.1 -0.1)">
       <use xlink:href="#DejaVuSans-49"/>
       <use x="63.623047" xlink:href="#DejaVuSans-48"/>
       <use x="127.246094" xlink:href="#DejaVuSans-48"/>
      </g>
     </g>
    </g>
    <g id="xtick_4">
     <g id="line2d_7">
      <path clip-path="url(#pdf7c541f09)" d="M 236.702901 307.584 
L 236.702901 41.472 
" style="fill:none;stroke:#b0b0b0;stroke-linecap:square;stroke-width:0.8;"/>
     </g>
     <g id="line2d_8">
      <g>
       <use style="stroke:#000000;stroke-width:0.8;" x="236.702901" xlink:href="#mcdd2154d9a" y="307.584"/>
      </g>
     </g>
     <g id="text_4">
      <!-- 150 -->
      <g transform="translate(227.159151 322.182437)scale(0.1 -0.1)">
       <use xlink:href="#DejaVuSans-49"/>
       <use x="63.623047" xlink:href="#DejaVuSans-53"/>
       <use x="127.246094" xlink:href="#DejaVuSans-48"/>
      </g>
     </g>
    </g>
    <g id="xtick_5">
     <g id="line2d_9">
      <path clip-path="url(#pdf7c541f09)" d="M 290.992958 307.584 
L 290.992958 41.472 
" style="fill:none;stroke:#b0b0b0;stroke-linecap:square;stroke-width:0.8;"/>
     </g>
     <g id="line2d_10">
      <g>
       <use style="stroke:#000000;stroke-width:0.8;" x="290.992958" xlink:href="#mcdd2154d9a" y="307.584"/>
      </g>
     </g>
     <g id="text_5">
      <!-- 200 -->
      <defs>
       <path d="M 19.1875 8.296875 
L 53.609375 8.296875 
L 53.609375 0 
L 7.328125 0 
L 7.328125 8.296875 
Q 12.9375 14.109375 22.625 23.890625 
Q 32.328125 33.6875 34.8125 36.53125 
Q 39.546875 41.84375 41.421875 45.53125 
Q 43.3125 49.21875 43.3125 52.78125 
Q 43.3125 58.59375 39.234375 62.25 
Q 35.15625 65.921875 28.609375 65.921875 
Q 23.96875 65.921875 18.8125 64.3125 
Q 13.671875 62.703125 7.8125 59.421875 
L 7.8125 69.390625 
Q 13.765625 71.78125 18.9375 73 
Q 24.125 74.21875 28.421875 74.21875 
Q 39.75 74.21875 46.484375 68.546875 
Q 53.21875 62.890625 53.21875 53.421875 
Q 53.21875 48.921875 51.53125 44.890625 
Q 49.859375 40.875 45.40625 35.40625 
Q 44.1875 33.984375 37.640625 27.21875 
Q 31.109375 20.453125 19.1875 8.296875 
z
" id="DejaVuSans-50"/>
      </defs>
      <g transform="translate(281.449208 322.182437)scale(0.1 -0.1)">
       <use xlink:href="#DejaVuSans-50"/>
       <use x="63.623047" xlink:href="#DejaVuSans-48"/>
       <use x="127.246094" xlink:href="#DejaVuSans-48"/>
      </g>
     </g>
    </g>
    <g id="xtick_6">
     <g id="line2d_11">
      <path clip-path="url(#pdf7c541f09)" d="M 345.283016 307.584 
L 345.283016 41.472 
" style="fill:none;stroke:#b0b0b0;stroke-linecap:square;stroke-width:0.8;"/>
     </g>
     <g id="line2d_12">
      <g>
       <use style="stroke:#000000;stroke-width:0.8;" x="345.283016" xlink:href="#mcdd2154d9a" y="307.584"/>
      </g>
     </g>
     <g id="text_6">
      <!-- 250 -->
      <g transform="translate(335.739266 322.182437)scale(0.1 -0.1)">
       <use xlink:href="#DejaVuSans-50"/>
       <use x="63.623047" xlink:href="#DejaVuSans-53"/>
       <use x="127.246094" xlink:href="#DejaVuSans-48"/>
      </g>
     </g>
    </g>
    <g id="xtick_7">
     <g id="line2d_13">
      <path clip-path="url(#pdf7c541f09)" d="M 399.573074 307.584 
L 399.573074 41.472 
" style="fill:none;stroke:#b0b0b0;stroke-linecap:square;stroke-width:0.8;"/>
     </g>
     <g id="line2d_14">
      <g>
       <use style="stroke:#000000;stroke-width:0.8;" x="399.573074" xlink:href="#mcdd2154d9a" y="307.584"/>
      </g>
     </g>
     <g id="text_7">
      <!-- 300 -->
      <defs>
       <path d="M 40.578125 39.3125 
Q 47.65625 37.796875 51.625 33 
Q 55.609375 28.21875 55.609375 21.1875 
Q 55.609375 10.40625 48.1875 4.484375 
Q 40.765625 -1.421875 27.09375 -1.421875 
Q 22.515625 -1.421875 17.65625 -0.515625 
Q 12.796875 0.390625 7.625 2.203125 
L 7.625 11.71875 
Q 11.71875 9.328125 16.59375 8.109375 
Q 21.484375 6.890625 26.8125 6.890625 
Q 36.078125 6.890625 40.9375 10.546875 
Q 45.796875 14.203125 45.796875 21.1875 
Q 45.796875 27.640625 41.28125 31.265625 
Q 36.765625 34.90625 28.71875 34.90625 
L 20.21875 34.90625 
L 20.21875 43.015625 
L 29.109375 43.015625 
Q 36.375 43.015625 40.234375 45.921875 
Q 44.09375 48.828125 44.09375 54.296875 
Q 44.09375 59.90625 40.109375 62.90625 
Q 36.140625 65.921875 28.71875 65.921875 
Q 24.65625 65.921875 20.015625 65.03125 
Q 15.375 64.15625 9.8125 62.3125 
L 9.8125 71.09375 
Q 15.4375 72.65625 20.34375 73.4375 
Q 25.25 74.21875 29.59375 74.21875 
Q 40.828125 74.21875 47.359375 69.109375 
Q 53.90625 64.015625 53.90625 55.328125 
Q 53.90625 49.265625 50.4375 45.09375 
Q 46.96875 40.921875 40.578125 39.3125 
z
" id="DejaVuSans-51"/>
      </defs>
      <g transform="translate(390.029324 322.182437)scale(0.1 -0.1)">
       <use xlink:href="#DejaVuSans-51"/>
       <use x="63.623047" xlink:href="#DejaVuSans-48"/>
       <use x="127.246094" xlink:href="#DejaVuSans-48"/>
      </g>
     </g>
    </g>
    <g id="text_8">
     <!-- Generations -->
     <defs>
      <path d="M 59.515625 10.40625 
L 59.515625 29.984375 
L 43.40625 29.984375 
L 43.40625 38.09375 
L 69.28125 38.09375 
L 69.28125 6.78125 
Q 63.578125 2.734375 56.6875 0.65625 
Q 49.8125 -1.421875 42 -1.421875 
Q 24.90625 -1.421875 15.25 8.5625 
Q 5.609375 18.5625 5.609375 36.375 
Q 5.609375 54.25 15.25 64.234375 
Q 24.90625 74.21875 42 74.21875 
Q 49.125 74.21875 55.546875 72.453125 
Q 61.96875 70.703125 67.390625 67.28125 
L 67.390625 56.78125 
Q 61.921875 61.421875 55.765625 63.765625 
Q 49.609375 66.109375 42.828125 66.109375 
Q 29.4375 66.109375 22.71875 58.640625 
Q 16.015625 51.171875 16.015625 36.375 
Q 16.015625 21.625 22.71875 14.15625 
Q 29.4375 6.6875 42.828125 6.6875 
Q 48.046875 6.6875 52.140625 7.59375 
Q 56.25 8.5 59.515625 10.40625 
z
" id="DejaVuSans-71"/>
      <path d="M 56.203125 29.59375 
L 56.203125 25.203125 
L 14.890625 25.203125 
Q 15.484375 15.921875 20.484375 11.0625 
Q 25.484375 6.203125 34.421875 6.203125 
Q 39.59375 6.203125 44.453125 7.46875 
Q 49.3125 8.734375 54.109375 11.28125 
L 54.109375 2.78125 
Q 49.265625 0.734375 44.1875 -0.34375 
Q 39.109375 -1.421875 33.890625 -1.421875 
Q 20.796875 -1.421875 13.15625 6.1875 
Q 5.515625 13.8125 5.515625 26.8125 
Q 5.515625 40.234375 12.765625 48.109375 
Q 20.015625 56 32.328125 56 
Q 43.359375 56 49.78125 48.890625 
Q 56.203125 41.796875 56.203125 29.59375 
z
M 47.21875 32.234375 
Q 47.125 39.59375 43.09375 43.984375 
Q 39.0625 48.390625 32.421875 48.390625 
Q 24.90625 48.390625 20.390625 44.140625 
Q 15.875 39.890625 15.1875 32.171875 
z
" id="DejaVuSans-101"/>
      <path d="M 54.890625 33.015625 
L 54.890625 0 
L 45.90625 0 
L 45.90625 32.71875 
Q 45.90625 40.484375 42.875 44.328125 
Q 39.84375 48.1875 33.796875 48.1875 
Q 26.515625 48.1875 22.3125 43.546875 
Q 18.109375 38.921875 18.109375 30.90625 
L 18.109375 0 
L 9.078125 0 
L 9.078125 54.6875 
L 18.109375 54.6875 
L 18.109375 46.1875 
Q 21.34375 51.125 25.703125 53.5625 
Q 30.078125 56 35.796875 56 
Q 45.21875 56 50.046875 50.171875 
Q 54.890625 44.34375 54.890625 33.015625 
z
" id="DejaVuSans-110"/>
      <path d="M 41.109375 46.296875 
Q 39.59375 47.171875 37.8125 47.578125 
Q 36.03125 48 33.890625 48 
Q 26.265625 48 22.1875 43.046875 
Q 18.109375 38.09375 18.109375 28.8125 
L 18.109375 0 
L 9.078125 0 
L 9.078125 54.6875 
L 18.109375 54.6875 
L 18.109375 46.1875 
Q 20.953125 51.171875 25.484375 53.578125 
Q 30.03125 56 36.53125 56 
Q 37.453125 56 38.578125 55.875 
Q 39.703125 55.765625 41.0625 55.515625 
z
" id="DejaVuSans-114"/>
      <path d="M 34.28125 27.484375 
Q 23.390625 27.484375 19.1875 25 
Q 14.984375 22.515625 14.984375 16.5 
Q 14.984375 11.71875 18.140625 8.90625 
Q 21.296875 6.109375 26.703125 6.109375 
Q 34.1875 6.109375 38.703125 11.40625 
Q 43.21875 16.703125 43.21875 25.484375 
L 43.21875 27.484375 
z
M 52.203125 31.203125 
L 52.203125 0 
L 43.21875 0 
L 43.21875 8.296875 
Q 40.140625 3.328125 35.546875 0.953125 
Q 30.953125 -1.421875 24.3125 -1.421875 
Q 15.921875 -1.421875 10.953125 3.296875 
Q 6 8.015625 6 15.921875 
Q 6 25.140625 12.171875 29.828125 
Q 18.359375 34.515625 30.609375 34.515625 
L 43.21875 34.515625 
L 43.21875 35.40625 
Q 43.21875 41.609375 39.140625 45 
Q 35.0625 48.390625 27.6875 48.390625 
Q 23 48.390625 18.546875 47.265625 
Q 14.109375 46.140625 10.015625 43.890625 
L 10.015625 52.203125 
Q 14.9375 54.109375 19.578125 55.046875 
Q 24.21875 56 28.609375 56 
Q 40.484375 56 46.34375 49.84375 
Q 52.203125 43.703125 52.203125 31.203125 
z
" id="DejaVuSans-97"/>
      <path d="M 18.3125 70.21875 
L 18.3125 54.6875 
L 36.8125 54.6875 
L 36.8125 47.703125 
L 18.3125 47.703125 
L 18.3125 18.015625 
Q 18.3125 11.328125 20.140625 9.421875 
Q 21.96875 7.515625 27.59375 7.515625 
L 36.8125 7.515625 
L 36.8125 0 
L 27.59375 0 
Q 17.1875 0 13.234375 3.875 
Q 9.28125 7.765625 9.28125 18.015625 
L 9.28125 47.703125 
L 2.6875 47.703125 
L 2.6875 54.6875 
L 9.28125 54.6875 
L 9.28125 70.21875 
z
" id="DejaVuSans-116"/>
      <path d="M 9.421875 54.6875 
L 18.40625 54.6875 
L 18.40625 0 
L 9.421875 0 
z
M 9.421875 75.984375 
L 18.40625 75.984375 
L 18.40625 64.59375 
L 9.421875 64.59375 
z
" id="DejaVuSans-105"/>
      <path d="M 30.609375 48.390625 
Q 23.390625 48.390625 19.1875 42.75 
Q 14.984375 37.109375 14.984375 27.296875 
Q 14.984375 17.484375 19.15625 11.84375 
Q 23.34375 6.203125 30.609375 6.203125 
Q 37.796875 6.203125 41.984375 11.859375 
Q 46.1875 17.53125 46.1875 27.296875 
Q 46.1875 37.015625 41.984375 42.703125 
Q 37.796875 48.390625 30.609375 48.390625 
z
M 30.609375 56 
Q 42.328125 56 49.015625 48.375 
Q 55.71875 40.765625 55.71875 27.296875 
Q 55.71875 13.875 49.015625 6.21875 
Q 42.328125 -1.421875 30.609375 -1.421875 
Q 18.84375 -1.421875 12.171875 6.21875 
Q 5.515625 13.875 5.515625 27.296875 
Q 5.515625 40.765625 12.171875 48.375 
Q 18.84375 56 30.609375 56 
z
" id="DejaVuSans-111"/>
      <path d="M 44.28125 53.078125 
L 44.28125 44.578125 
Q 40.484375 46.53125 36.375 47.5 
Q 32.28125 48.484375 27.875 48.484375 
Q 21.1875 48.484375 17.84375 46.4375 
Q 14.5 44.390625 14.5 40.28125 
Q 14.5 37.15625 16.890625 35.375 
Q 19.28125 33.59375 26.515625 31.984375 
L 29.59375 31.296875 
Q 39.15625 29.25 43.1875 25.515625 
Q 47.21875 21.78125 47.21875 15.09375 
Q 47.21875 7.46875 41.1875 3.015625 
Q 35.15625 -1.421875 24.609375 -1.421875 
Q 20.21875 -1.421875 15.453125 -0.5625 
Q 10.6875 0.296875 5.421875 2 
L 5.421875 11.28125 
Q 10.40625 8.6875 15.234375 7.390625 
Q 20.0625 6.109375 24.8125 6.109375 
Q 31.15625 6.109375 34.5625 8.28125 
Q 37.984375 10.453125 37.984375 14.40625 
Q 37.984375 18.0625 35.515625 20.015625 
Q 33.0625 21.96875 24.703125 23.78125 
L 21.578125 24.515625 
Q 13.234375 26.265625 9.515625 29.90625 
Q 5.8125 33.546875 5.8125 39.890625 
Q 5.8125 47.609375 11.28125 51.796875 
Q 16.75 56 26.8125 56 
Q 31.78125 56 36.171875 55.265625 
Q 40.578125 54.546875 44.28125 53.078125 
z
" id="DejaVuSans-115"/>
     </defs>
     <g transform="translate(205.662344 335.860562)scale(0.1 -0.1)">
      <use xlink:href="#DejaVuSans-71"/>
      <use x="77.490234" xlink:href="#DejaVuSans-101"/>
      <use x="139.013672" xlink:href="#DejaVuSans-110"/>
      <use x="202.392578" xlink:href="#DejaVuSans-101"/>
      <use x="263.916016" xlink:href="#DejaVuSans-114"/>
      <use x="305.029297" xlink:href="#DejaVuSans-97"/>
      <use x="366.308594" xlink:href="#DejaVuSans-116"/>
      <use x="405.517578" xlink:href="#DejaVuSans-105"/>
      <use x="433.300781" xlink:href="#DejaVuSans-111"/>
      <use x="494.482422" xlink:href="#DejaVuSans-110"/>
      <use x="557.861328" xlink:href="#DejaVuSans-115"/>
     </g>
    </g>
   </g>
   <g id="matplotlib.axis_2">
    <g id="ytick_1">
     <g id="line2d_15">
      <path clip-path="url(#pdf7c541f09)" d="M 57.6 290.935691 
L 414.72 290.935691 
" style="fill:none;stroke:#b0b0b0;stroke-linecap:square;stroke-width:0.8;"/>
     </g>
     <g id="line2d_16">
      <defs>
       <path d="M 0 0 
L -3.5 0 
" id="m2ebb42e59e" style="stroke:#000000;stroke-width:0.8;"/>
      </defs>
      <g>
       <use style="stroke:#000000;stroke-width:0.8;" x="57.6" xlink:href="#m2ebb42e59e" y="290.935691"/>
      </g>
     </g>
     <g id="text_9">
      <!-- −250 -->
      <defs>
       <path d="M 10.59375 35.5 
L 73.1875 35.5 
L 73.1875 27.203125 
L 10.59375 27.203125 
z
" id="DejaVuSans-8722"/>
      </defs>
      <g transform="translate(23.132812 294.73491)scale(0.1 -0.1)">
       <use xlink:href="#DejaVuSans-8722"/>
       <use x="83.789062" xlink:href="#DejaVuSans-50"/>
       <use x="147.412109" xlink:href="#DejaVuSans-53"/>
       <use x="211.035156" xlink:href="#DejaVuSans-48"/>
      </g>
     </g>
    </g>
    <g id="ytick_2">
     <g id="line2d_17">
      <path clip-path="url(#pdf7c541f09)" d="M 57.6 241.085928 
L 414.72 241.085928 
" style="fill:none;stroke:#b0b0b0;stroke-linecap:square;stroke-width:0.8;"/>
     </g>
     <g id="line2d_18">
      <g>
       <use style="stroke:#000000;stroke-width:0.8;" x="57.6" xlink:href="#m2ebb42e59e" y="241.085928"/>
      </g>
     </g>
     <g id="text_10">
      <!-- −200 -->
      <g transform="translate(23.132812 244.885147)scale(0.1 -0.1)">
       <use xlink:href="#DejaVuSans-8722"/>
       <use x="83.789062" xlink:href="#DejaVuSans-50"/>
       <use x="147.412109" xlink:href="#DejaVuSans-48"/>
       <use x="211.035156" xlink:href="#DejaVuSans-48"/>
      </g>
     </g>
    </g>
    <g id="ytick_3">
     <g id="line2d_19">
      <path clip-path="url(#pdf7c541f09)" d="M 57.6 191.236164 
L 414.72 191.236164 
" style="fill:none;stroke:#b0b0b0;stroke-linecap:square;stroke-width:0.8;"/>
     </g>
     <g id="line2d_20">
      <g>
       <use style="stroke:#000000;stroke-width:0.8;" x="57.6" xlink:href="#m2ebb42e59e" y="191.236164"/>
      </g>
     </g>
     <g id="text_11">
      <!-- −150 -->
      <g transform="translate(23.132812 195.035383)scale(0.1 -0.1)">
       <use xlink:href="#DejaVuSans-8722"/>
       <use x="83.789062" xlink:href="#DejaVuSans-49"/>
       <use x="147.412109" xlink:href="#DejaVuSans-53"/>
       <use x="211.035156" xlink:href="#DejaVuSans-48"/>
      </g>
     </g>
    </g>
    <g id="ytick_4">
     <g id="line2d_21">
      <path clip-path="url(#pdf7c541f09)" d="M 57.6 141.386401 
L 414.72 141.386401 
" style="fill:none;stroke:#b0b0b0;stroke-linecap:square;stroke-width:0.8;"/>
     </g>
     <g id="line2d_22">
      <g>
       <use style="stroke:#000000;stroke-width:0.8;" x="57.6" xlink:href="#m2ebb42e59e" y="141.386401"/>
      </g>
     </g>
     <g id="text_12">
      <!-- −100 -->
      <g transform="translate(23.132812 145.18562)scale(0.1 -0.1)">
       <use xlink:href="#DejaVuSans-8722"/>
       <use x="83.789062" xlink:href="#DejaVuSans-49"/>
       <use x="147.412109" xlink:href="#DejaVuSans-48"/>
       <use x="211.035156" xlink:href="#DejaVuSans-48"/>
      </g>
     </g>
    </g>
    <g id="ytick_5">
     <g id="line2d_23">
      <path clip-path="url(#pdf7c541f09)" d="M 57.6 91.536637 
L 414.72 91.536637 
" style="fill:none;stroke:#b0b0b0;stroke-linecap:square;stroke-width:0.8;"/>
     </g>
     <g id="line2d_24">
      <g>
       <use style="stroke:#000000;stroke-width:0.8;" x="57.6" xlink:href="#m2ebb42e59e" y="91.536637"/>
      </g>
     </g>
     <g id="text_13">
      <!-- −50 -->
      <g transform="translate(29.495313 95.335856)scale(0.1 -0.1)">
       <use xlink:href="#DejaVuSans-8722"/>
       <use x="83.789062" xlink:href="#DejaVuSans-53"/>
       <use x="147.412109" xlink:href="#DejaVuSans-48"/>
      </g>
     </g>
    </g>
    <g id="ytick_6">
     <g id="line2d_25">
      <path clip-path="url(#pdf7c541f09)" d="M 57.6 41.686874 
L 414.72 41.686874 
" style="fill:none;stroke:#b0b0b0;stroke-linecap:square;stroke-width:0.8;"/>
     </g>
     <g id="line2d_26">
      <g>
       <use style="stroke:#000000;stroke-width:0.8;" x="57.6" xlink:href="#m2ebb42e59e" y="41.686874"/>
      </g>
     </g>
     <g id="text_14">
      <!-- 0 -->
      <g transform="translate(44.2375 45.486093)scale(0.1 -0.1)">
       <use xlink:href="#DejaVuSans-48"/>
      </g>
     </g>
    </g>
    <g id="text_15">
     <!-- Fitness -->
     <defs>
      <path d="M 9.8125 72.90625 
L 51.703125 72.90625 
L 51.703125 64.59375 
L 19.671875 64.59375 
L 19.671875 43.109375 
L 48.578125 43.109375 
L 48.578125 34.8125 
L 19.671875 34.8125 
L 19.671875 0 
L 9.8125 0 
z
" id="DejaVuSans-70"/>
     </defs>
     <g transform="translate(17.053125 191.845187)rotate(-90)scale(0.1 -0.1)">
      <use xlink:href="#DejaVuSans-70"/>
      <use x="50.269531" xlink:href="#DejaVuSans-105"/>
      <use x="78.052734" xlink:href="#DejaVuSans-116"/>
      <use x="117.261719" xlink:href="#DejaVuSans-110"/>
      <use x="180.640625" xlink:href="#DejaVuSans-101"/>
      <use x="242.164062" xlink:href="#DejaVuSans-115"/>
      <use x="294.263672" xlink:href="#DejaVuSans-115"/>
     </g>
    </g>
   </g>
   <g id="line2d_27">
    <path clip-path="url(#pdf7c541f09)" d="M 73.832727 217.117179 
L 74.918528 161.928848 
L 76.00433 177.789432 
L 79.261733 159.325707 
L 80.347534 154.248325 
L 81.433335 156.930172 
L 82.519137 144.50726 
L 83.604938 146.497148 
L 84.690739 155.328619 
L 85.77654 149.582785 
L 86.862341 166.138415 
L 87.948142 151.604076 
L 89.033943 152.9558 
L 90.119745 155.845337 
L 91.205546 149.027882 
L 92.291347 152.464579 
L 93.377148 152.90363 
L 94.462949 139.002898 
L 95.54875 143.409145 
L 96.634552 138.484608 
L 97.720353 136.802994 
L 98.806154 150.917677 
L 99.891955 144.037491 
L 100.977756 157.969276 
L 102.063557 150.276314 
L 103.149358 158.656568 
L 104.23516 140.9935 
L 105.320961 138.206653 
L 106.406762 147.709833 
L 107.492563 144.061189 
L 108.578364 132.767162 
L 109.664165 136.768535 
L 110.749967 141.282669 
L 111.835768 143.311563 
L 112.921569 128.956428 
L 114.00737 139.476544 
L 115.093171 148.705146 
L 116.178972 124.476689 
L 117.264773 137.847182 
L 118.350575 126.576761 
L 119.436376 139.122706 
L 120.522177 140.057527 
L 121.607978 130.636831 
L 122.693779 147.113039 
L 123.77958 126.959153 
L 124.865382 129.498965 
L 125.951183 143.917688 
L 127.036984 123.22004 
L 128.122785 128.896708 
L 129.208586 136.198972 
L 130.294387 127.799222 
L 131.380189 133.540699 
L 132.46599 125.537442 
L 133.551791 138.259854 
L 134.637592 138.902329 
L 135.723393 140.173363 
L 136.809194 141.748491 
L 137.894995 128.654284 
L 138.980797 142.269523 
L 140.066598 129.798563 
L 141.152399 137.253321 
L 142.2382 126.379423 
L 143.324001 137.758374 
L 145.495604 129.506451 
L 146.581405 140.175411 
L 147.667206 132.435048 
L 148.753007 135.402693 
L 149.838808 142.243667 
L 150.924609 141.075249 
L 152.01041 119.578294 
L 153.096212 132.362825 
L 154.182013 130.901396 
L 155.267814 143.820011 
L 156.353615 144.67911 
L 157.439416 143.254405 
L 158.525217 136.101471 
L 159.611019 141.971419 
L 160.69682 127.384101 
L 161.782621 140.064438 
L 162.868422 123.792228 
L 163.954223 123.299384 
L 165.040024 140.016675 
L 166.125825 129.436313 
L 167.211627 138.474312 
L 168.297428 127.254483 
L 169.383229 139.617474 
L 170.46903 139.734854 
L 171.554831 145.061678 
L 172.640632 143.013277 
L 173.726434 146.345463 
L 174.812235 148.471641 
L 175.898036 144.704812 
L 176.983837 127.170618 
L 178.069638 140.891398 
L 179.155439 143.067413 
L 180.24124 137.092004 
L 181.327042 137.689209 
L 182.412843 141.37649 
L 183.498644 158.644625 
L 184.584445 148.821597 
L 185.670246 137.798415 
L 186.756047 141.605214 
L 187.841849 139.595401 
L 188.92765 134.077064 
L 190.013451 142.066896 
L 191.099252 140.044615 
L 192.185053 131.7426 
L 193.270854 140.296269 
L 194.356656 136.57655 
L 195.442457 148.339791 
L 196.528258 138.945475 
L 197.614059 154.744802 
L 198.69986 133.269225 
L 199.785661 149.593808 
L 200.871462 140.079104 
L 201.957264 142.987312 
L 203.043065 128.777962 
L 204.128866 141.424122 
L 206.300468 144.866446 
L 207.386269 133.798692 
L 208.472071 136.883009 
L 209.557872 137.354122 
L 210.643673 134.270186 
L 211.729474 138.190533 
L 212.815275 146.533311 
L 213.901076 135.9268 
L 214.986877 142.857048 
L 216.072679 145.338125 
L 217.15848 139.608761 
L 218.244281 146.96786 
L 219.330082 148.615436 
L 220.415883 153.118284 
L 221.501684 148.235884 
L 222.587486 148.892466 
L 223.673287 155.309601 
L 224.759088 153.364606 
L 225.844889 142.374253 
L 226.93069 138.962244 
L 228.016491 149.043186 
L 229.102292 137.526365 
L 230.188094 143.52605 
L 231.273895 142.533963 
L 232.359696 142.545904 
L 233.445497 154.533224 
L 234.531298 146.815587 
L 235.617099 153.058126 
L 236.702901 153.41236 
L 237.788702 135.437413 
L 238.874503 137.193795 
L 239.960304 148.472855 
L 241.046105 137.468739 
L 242.131906 148.402378 
L 243.217708 137.182011 
L 244.303509 145.632882 
L 245.38931 151.331107 
L 246.475111 134.285946 
L 247.560912 142.91805 
L 248.646713 161.061586 
L 249.732514 171.108708 
L 250.818316 149.091645 
L 251.904117 154.911503 
L 252.989918 157.079983 
L 254.075719 155.896148 
L 255.16152 160.648974 
L 256.247321 168.842428 
L 257.333123 168.11784 
L 258.418924 163.99394 
L 259.504725 155.111193 
L 260.590526 175.969139 
L 261.676327 164.05743 
L 262.762128 164.840205 
L 263.847929 168.923103 
L 264.933731 163.69509 
L 266.019532 164.401243 
L 267.105333 181.094574 
L 268.191134 153.651238 
L 269.276935 165.981032 
L 270.362736 163.317139 
L 271.448538 166.000682 
L 272.534339 147.327772 
L 273.62014 150.961127 
L 274.705941 149.348304 
L 275.791742 167.003301 
L 276.877543 170.542513 
L 277.963344 158.454425 
L 279.049146 164.74936 
L 280.134947 159.689694 
L 281.220748 171.210898 
L 282.306549 157.228851 
L 283.39235 156.560014 
L 284.478151 159.415943 
L 285.563953 154.968904 
L 286.649754 161.85858 
L 287.735555 160.168473 
L 288.821356 162.438601 
L 289.907157 173.583943 
L 290.992958 170.687712 
L 292.07876 155.019026 
L 293.164561 160.9963 
L 295.336163 157.292577 
L 296.421964 153.929489 
L 297.507765 165.987227 
L 298.593566 144.868273 
L 299.679368 160.302076 
L 300.765169 161.986907 
L 301.85097 157.614599 
L 302.936771 141.792383 
L 304.022572 147.351522 
L 305.108373 156.45053 
L 306.194175 155.853894 
L 307.279976 142.243607 
L 308.365777 141.350763 
L 309.451578 149.198533 
L 310.537379 143.989737 
L 311.62318 151.232799 
L 312.708981 156.432676 
L 313.794783 149.103404 
L 314.880584 164.217779 
L 315.966385 152.826908 
L 317.052186 144.945844 
L 318.137987 149.145844 
L 319.223788 150.931485 
L 320.30959 153.129277 
L 321.395391 138.944804 
L 322.481192 140.21756 
L 323.566993 166.504645 
L 324.652794 137.923142 
L 325.738595 152.944363 
L 326.824396 149.638069 
L 327.910198 151.453459 
L 328.995999 147.243688 
L 330.0818 148.737069 
L 331.167601 147.052502 
L 332.253402 144.528742 
L 333.339203 131.135382 
L 334.425005 155.00777 
L 335.510806 136.065595 
L 336.596607 138.810462 
L 337.682408 156.328914 
L 338.768209 140.3862 
L 339.85401 136.063355 
L 340.939811 146.482726 
L 342.025613 146.348025 
L 343.111414 157.252268 
L 344.197215 152.700152 
L 345.283016 154.098056 
L 346.368817 143.588483 
L 347.454618 147.656218 
L 348.54042 135.709244 
L 349.626221 141.13107 
L 350.712022 130.355663 
L 351.797823 150.405639 
L 352.883624 147.109144 
L 353.969425 131.244659 
L 355.055227 155.979556 
L 356.141028 146.171194 
L 357.226829 146.741903 
L 358.31263 146.507245 
L 359.398431 146.130425 
L 360.484232 136.632127 
L 361.570033 133.272469 
L 362.655835 144.57716 
L 363.741636 139.990813 
L 364.827437 134.643773 
L 365.913238 124.621184 
L 366.999039 149.188487 
L 368.08484 142.320498 
L 369.170642 145.624212 
L 370.256443 145.109678 
L 371.342244 143.803451 
L 372.428045 154.252573 
L 373.513846 141.120799 
L 374.599647 157.260363 
L 375.685448 140.378027 
L 376.77125 151.845417 
L 377.857051 149.74995 
L 378.942852 148.115002 
L 380.028653 143.125585 
L 381.114454 146.15477 
L 382.200255 139.208635 
L 383.286057 147.905487 
L 384.371858 149.363317 
L 385.457659 148.025359 
L 386.54346 152.482347 
L 387.629261 147.159627 
L 388.715062 147.295785 
L 389.800863 150.984487 
L 390.886665 151.552103 
L 391.972466 147.074343 
L 393.058267 155.28927 
L 394.144068 158.870063 
L 396.31567 138.434799 
L 397.401472 137.453342 
L 398.487273 141.522374 
L 398.487273 141.522374 
" style="fill:none;stroke:#0000ff;stroke-linecap:square;stroke-width:1.5;"/>
   </g>
   <g id="line2d_28">
    <path clip-path="url(#pdf7c541f09)" d="M 73.832727 295.488 
L 74.918528 232.69329 
L 76.00433 259.098462 
L 77.090131 255.20666 
L 78.175932 247.449483 
L 80.347534 234.72914 
L 81.433335 239.432507 
L 82.519137 219.884532 
L 83.604938 224.280726 
L 84.690739 237.270045 
L 85.77654 227.178103 
L 86.862341 253.219848 
L 87.948142 233.513871 
L 89.033943 233.340506 
L 90.119745 239.426161 
L 91.205546 227.606381 
L 92.291347 234.092575 
L 93.377148 236.835058 
L 94.462949 215.37795 
L 95.54875 221.040673 
L 96.634552 213.117876 
L 97.720353 212.552802 
L 98.806154 234.16565 
L 99.891955 221.429921 
L 100.977756 239.70785 
L 102.063557 229.533022 
L 103.149358 243.237348 
L 104.23516 214.956942 
L 105.320961 210.190636 
L 106.406762 229.891839 
L 107.492563 225.53846 
L 108.578364 205.680935 
L 109.664165 213.316231 
L 110.749967 219.735693 
L 111.835768 222.80678 
L 112.921569 199.559528 
L 114.00737 218.171144 
L 115.093171 232.408938 
L 116.178972 190.049231 
L 117.264773 215.644348 
L 118.350575 199.307278 
L 119.436376 218.343086 
L 120.522177 220.063128 
L 121.607978 206.105627 
L 122.693779 229.041043 
L 123.77958 198.510808 
L 124.865382 202.214504 
L 125.951183 227.253333 
L 127.036984 192.872079 
L 128.122785 200.474662 
L 129.208586 215.086993 
L 130.294387 200.885452 
L 131.380189 210.192722 
L 132.46599 194.683271 
L 133.551791 218.770073 
L 134.637592 218.215905 
L 135.723393 217.917534 
L 136.809194 223.700557 
L 137.894995 201.561617 
L 138.980797 224.032269 
L 140.066598 203.271738 
L 141.152399 215.722315 
L 142.2382 195.636214 
L 143.324001 216.060325 
L 144.409802 210.664877 
L 145.495604 203.075938 
L 146.581405 221.242492 
L 147.667206 208.090656 
L 148.753007 214.532021 
L 149.838808 224.82457 
L 150.924609 220.750428 
L 152.01041 182.078259 
L 153.096212 207.040928 
L 154.182013 202.963953 
L 155.267814 224.996122 
L 156.353615 224.281726 
L 157.439416 226.888367 
L 158.525217 214.016274 
L 159.611019 224.111597 
L 160.69682 198.010849 
L 161.782621 219.08505 
L 162.868422 192.107378 
L 163.954223 192.392529 
L 165.040024 221.18005 
L 166.125825 200.861821 
L 167.211627 217.865643 
L 168.297428 199.082805 
L 169.383229 217.966173 
L 170.46903 214.049494 
L 171.554831 220.915463 
L 172.640632 221.996238 
L 174.812235 232.647711 
L 175.898036 226.50093 
L 176.983837 198.890254 
L 178.069638 221.950422 
L 179.155439 223.379523 
L 180.24124 217.271982 
L 181.327042 214.973616 
L 182.412843 223.207847 
L 183.498644 246.137782 
L 184.584445 233.056559 
L 185.670246 216.232259 
L 186.756047 222.084011 
L 187.841849 219.002625 
L 188.92765 207.293773 
L 190.013451 223.53974 
L 191.099252 222.410191 
L 192.185053 206.364187 
L 193.270854 219.814434 
L 194.356656 211.298007 
L 195.442457 231.525083 
L 196.528258 217.310379 
L 197.614059 242.020668 
L 198.69986 206.912428 
L 199.785661 236.316992 
L 200.871462 220.168294 
L 201.957264 226.943245 
L 203.043065 203.965665 
L 204.128866 220.759791 
L 206.300468 229.270045 
L 207.386269 213.05105 
L 208.472071 213.518966 
L 209.557872 218.472664 
L 210.643673 212.496972 
L 211.729474 215.334399 
L 212.815275 228.451705 
L 213.901076 215.20769 
L 216.072679 228.132482 
L 217.15848 219.743863 
L 218.244281 234.107886 
L 219.330082 234.910808 
L 220.415883 239.139919 
L 221.501684 234.347264 
L 222.587486 233.475035 
L 223.673287 241.038522 
L 224.759088 239.782215 
L 225.844889 220.483092 
L 226.93069 216.618801 
L 228.016491 232.69567 
L 229.102292 216.509117 
L 230.188094 226.880501 
L 231.273895 222.56502 
L 232.359696 227.203388 
L 233.445497 241.653587 
L 234.531298 229.923152 
L 235.617099 241.193186 
L 236.702901 241.847775 
L 237.788702 211.291351 
L 238.874503 214.604427 
L 239.960304 232.987512 
L 241.046105 213.450824 
L 242.131906 232.822189 
L 243.217708 212.989516 
L 244.303509 229.827603 
L 245.38931 235.669851 
L 246.475111 209.309753 
L 247.560912 221.605184 
L 248.646713 249.022318 
L 249.732514 261.178135 
L 250.818316 230.772368 
L 251.904117 235.529668 
L 252.989918 241.217699 
L 254.075719 241.487664 
L 255.16152 246.005028 
L 256.247321 261.976903 
L 257.333123 259.755977 
L 258.418924 252.112947 
L 259.504725 238.782662 
L 260.590526 264.707448 
L 261.676327 250.33129 
L 262.762128 250.364581 
L 263.847929 255.578567 
L 264.933731 248.116345 
L 266.019532 249.070983 
L 267.105333 270.651422 
L 268.191134 236.100178 
L 269.276935 252.331671 
L 270.362736 248.791563 
L 271.448538 252.694549 
L 272.534339 229.016437 
L 273.62014 234.108655 
L 274.705941 232.406062 
L 275.791742 253.581813 
L 276.877543 259.917851 
L 277.963344 245.407524 
L 279.049146 252.290012 
L 280.134947 246.234443 
L 281.220748 262.468291 
L 282.306549 240.604408 
L 283.39235 240.979282 
L 284.478151 242.057792 
L 285.563953 238.083768 
L 286.649754 243.878313 
L 287.735555 244.318707 
L 288.821356 249.209573 
L 289.907157 261.83413 
L 290.992958 261.302547 
L 292.07876 241.348114 
L 293.164561 250.644834 
L 294.250362 246.160909 
L 295.336163 245.097885 
L 296.421964 239.31305 
L 297.507765 256.173591 
L 298.593566 222.011086 
L 299.679368 244.18826 
L 300.765169 246.408108 
L 301.85097 237.468601 
L 302.936771 215.866467 
L 304.022572 230.527302 
L 305.108373 242.499488 
L 306.194175 243.893817 
L 307.279976 222.005345 
L 308.365777 223.322081 
L 309.451578 230.953683 
L 310.537379 224.776605 
L 312.708981 241.618074 
L 313.794783 231.696767 
L 314.880584 250.853782 
L 315.966385 239.383933 
L 317.052186 225.871228 
L 318.137987 232.572666 
L 319.223788 233.609761 
L 320.30959 235.709757 
L 321.395391 216.170558 
L 322.481192 220.110528 
L 323.566993 256.796923 
L 324.652794 215.09058 
L 325.738595 238.849473 
L 326.824396 234.556609 
L 327.910198 236.4538 
L 328.995999 231.934195 
L 330.0818 232.751031 
L 331.167601 230.261679 
L 332.253402 226.91927 
L 333.339203 208.295875 
L 334.425005 244.72171 
L 335.510806 214.189411 
L 336.596607 219.929958 
L 337.682408 245.931319 
L 338.768209 220.205505 
L 339.85401 213.046998 
L 340.939811 228.736208 
L 342.025613 230.058985 
L 343.111414 242.043514 
L 344.197215 239.212084 
L 345.283016 240.012701 
L 346.368817 226.715635 
L 347.454618 232.993867 
L 348.54042 213.828083 
L 349.626221 221.99866 
L 350.712022 204.000626 
L 351.797823 236.373688 
L 352.883624 230.845474 
L 353.969425 205.586331 
L 355.055227 243.200061 
L 356.141028 228.02918 
L 357.226829 232.035969 
L 358.31263 232.230362 
L 359.398431 233.295969 
L 360.484232 214.676945 
L 361.570033 210.019531 
L 362.655835 229.469428 
L 363.741636 220.082 
L 364.827437 213.28308 
L 365.913238 193.878908 
L 366.999039 232.471157 
L 368.08484 222.17582 
L 369.170642 228.932605 
L 370.256443 226.927402 
L 371.342244 227.998716 
L 372.428045 242.008399 
L 373.513846 223.921211 
L 374.599647 247.124866 
L 375.685448 220.270147 
L 376.77125 240.115491 
L 377.857051 233.765038 
L 378.942852 233.753223 
L 380.028653 225.516945 
L 381.114454 231.458053 
L 382.200255 219.813797 
L 383.286057 233.383145 
L 384.371858 233.503056 
L 385.457659 231.495132 
L 386.54346 234.598147 
L 387.629261 226.48835 
L 388.715062 228.735632 
L 389.800863 238.432982 
L 390.886665 238.731957 
L 391.972466 231.527574 
L 393.058267 241.966752 
L 394.144068 248.153751 
L 395.229869 235.144863 
L 396.31567 214.758743 
L 397.401472 216.47636 
L 398.487273 221.429124 
L 398.487273 221.429124 
" style="fill:none;stroke:#008000;stroke-dasharray:9.6,2.4,1.5,2.4;stroke-dashoffset:0;stroke-width:1.5;"/>
   </g>
   <g id="line2d_29">
    <path clip-path="url(#pdf7c541f09)" d="M 73.832727 138.746359 
L 74.918528 91.164407 
L 76.00433 96.480402 
L 77.090131 88.135032 
L 78.175932 84.209282 
L 79.261733 77.636992 
L 80.347534 73.767511 
L 81.433335 74.427836 
L 82.519137 69.129988 
L 83.604938 68.713571 
L 84.690739 73.387193 
L 85.77654 71.987466 
L 86.862341 79.056982 
L 87.948142 69.69428 
L 89.033943 72.571094 
L 90.119745 72.264514 
L 91.205546 70.449382 
L 92.291347 70.836583 
L 93.377148 68.972202 
L 94.462949 62.627845 
L 95.54875 65.777618 
L 96.634552 63.851341 
L 97.720353 61.053187 
L 98.806154 67.669703 
L 99.891955 66.645061 
L 100.977756 76.230703 
L 102.063557 71.019606 
L 103.149358 74.075788 
L 104.23516 67.030059 
L 106.406762 65.527828 
L 108.578364 59.85339 
L 109.664165 60.220839 
L 110.749967 62.829646 
L 111.835768 63.816346 
L 112.921569 58.353327 
L 114.00737 60.781944 
L 115.093171 65.001355 
L 116.178972 58.904147 
L 117.264773 60.050017 
L 118.350575 53.846244 
L 119.436376 59.902325 
L 120.522177 60.051927 
L 121.607978 55.168034 
L 122.693779 65.185034 
L 123.77958 55.407497 
L 124.865382 56.783426 
L 125.951183 60.582044 
L 127.036984 53.568 
L 128.122785 57.318755 
L 129.208586 57.310951 
L 130.294387 54.712992 
L 131.380189 56.888676 
L 132.46599 56.391613 
L 133.551791 57.749636 
L 134.637592 59.588754 
L 135.723393 62.429191 
L 136.809194 59.796426 
L 137.894995 55.746951 
L 138.980797 60.506778 
L 140.066598 56.325388 
L 141.152399 58.784328 
L 142.2382 57.122632 
L 143.324001 59.456422 
L 144.409802 56.627253 
L 145.495604 55.936964 
L 146.581405 59.108329 
L 147.667206 56.77944 
L 148.753007 56.273365 
L 149.838808 59.662764 
L 150.924609 61.400069 
L 152.01041 57.07833 
L 153.096212 57.684722 
L 154.182013 58.83884 
L 155.267814 62.643899 
L 156.353615 65.076494 
L 157.439416 59.620443 
L 158.525217 58.186669 
L 159.611019 59.831242 
L 160.69682 56.757354 
L 161.782621 61.043826 
L 162.868422 55.477078 
L 163.954223 54.206238 
L 165.040024 58.853299 
L 166.125825 58.010804 
L 167.211627 59.082981 
L 168.297428 55.426161 
L 169.383229 61.268776 
L 171.554831 69.207893 
L 172.640632 64.030316 
L 173.726434 65.124256 
L 174.812235 64.295571 
L 175.898036 62.908695 
L 176.983837 55.450983 
L 178.069638 59.832374 
L 179.155439 62.755302 
L 180.24124 56.912027 
L 181.327042 60.404801 
L 182.412843 59.545132 
L 183.498644 71.151469 
L 184.584445 64.586635 
L 185.670246 59.364571 
L 186.756047 61.126418 
L 187.841849 60.188177 
L 188.92765 60.860355 
L 190.013451 60.594052 
L 191.099252 57.679039 
L 192.185053 57.121012 
L 193.270854 60.778103 
L 194.356656 61.855093 
L 195.442457 65.154499 
L 196.528258 60.580571 
L 197.614059 67.468936 
L 198.69986 59.626023 
L 199.785661 62.870625 
L 200.871462 59.989913 
L 201.957264 59.031378 
L 203.043065 53.590259 
L 204.128866 62.088452 
L 205.214667 61.531333 
L 206.300468 60.462847 
L 207.386269 54.546335 
L 208.472071 60.247051 
L 209.557872 56.235581 
L 210.643673 56.0434 
L 211.729474 61.046668 
L 212.815275 64.614916 
L 213.901076 56.64591 
L 214.986877 63.785333 
L 216.072679 62.543768 
L 217.15848 59.473659 
L 218.244281 59.827834 
L 219.330082 62.320065 
L 220.415883 67.096649 
L 221.501684 62.124504 
L 222.587486 64.309896 
L 223.673287 69.58068 
L 225.844889 64.265414 
L 226.93069 61.305687 
L 228.016491 65.390702 
L 229.102292 58.543613 
L 230.188094 60.171599 
L 231.273895 62.502906 
L 232.359696 57.888421 
L 233.445497 67.41286 
L 234.531298 63.708022 
L 235.617099 64.923065 
L 236.702901 64.976944 
L 237.788702 59.583475 
L 238.874503 59.783163 
L 239.960304 63.958198 
L 241.046105 61.486654 
L 242.131906 63.982567 
L 243.217708 61.374505 
L 244.303509 61.43816 
L 245.38931 66.992364 
L 246.475111 59.262139 
L 247.560912 64.230916 
L 248.646713 73.100854 
L 249.732514 81.039282 
L 250.818316 67.410922 
L 251.904117 74.293338 
L 252.989918 72.942268 
L 254.075719 70.304631 
L 255.16152 75.29292 
L 256.247321 75.707953 
L 257.333123 76.479704 
L 258.418924 75.874933 
L 259.504725 71.439724 
L 260.590526 87.230829 
L 261.676327 77.78357 
L 262.762128 79.31583 
L 263.847929 82.267639 
L 264.933731 79.273835 
L 266.019532 79.731504 
L 267.105333 91.537727 
L 268.191134 71.202298 
L 269.276935 79.630393 
L 270.362736 77.842715 
L 271.448538 79.306816 
L 272.534339 65.639107 
L 273.62014 67.8136 
L 274.705941 66.290545 
L 275.791742 80.424788 
L 276.877543 81.167174 
L 277.963344 71.501326 
L 279.049146 77.208709 
L 280.134947 73.144945 
L 281.220748 79.953505 
L 282.306549 73.853294 
L 283.39235 72.140747 
L 284.478151 76.774094 
L 285.563953 71.854039 
L 286.649754 79.838847 
L 287.735555 76.018239 
L 288.821356 75.667629 
L 289.907157 85.333755 
L 290.992958 80.072877 
L 292.07876 68.689938 
L 293.164561 71.347767 
L 294.250362 72.320658 
L 295.336163 69.487269 
L 296.421964 68.545928 
L 297.507765 75.800863 
L 298.593566 67.72546 
L 299.679368 76.415892 
L 300.765169 77.565707 
L 301.85097 77.760596 
L 302.936771 67.718299 
L 304.022572 64.175741 
L 305.108373 70.401571 
L 306.194175 67.813971 
L 307.279976 62.481869 
L 308.365777 59.379445 
L 309.451578 67.443384 
L 310.537379 63.202869 
L 311.62318 69.251068 
L 312.708981 71.247278 
L 313.794783 66.510041 
L 314.880584 77.581776 
L 315.966385 66.269882 
L 317.052186 64.020461 
L 318.137987 65.719021 
L 320.30959 70.548797 
L 321.395391 61.719049 
L 322.481192 60.324592 
L 323.566993 76.212368 
L 324.652794 60.755703 
L 325.738595 67.039253 
L 326.824396 64.719529 
L 327.910198 66.453119 
L 328.995999 62.553181 
L 330.0818 64.723106 
L 331.167601 63.843324 
L 332.253402 62.138214 
L 333.339203 53.974889 
L 334.425005 65.293831 
L 335.510806 57.941779 
L 336.596607 57.690966 
L 337.682408 66.726508 
L 338.768209 60.566894 
L 339.85401 59.079712 
L 340.939811 64.229244 
L 342.025613 62.637066 
L 343.111414 72.461022 
L 344.197215 66.188221 
L 345.283016 68.183411 
L 346.368817 60.461332 
L 347.454618 62.318569 
L 348.54042 57.590405 
L 349.626221 60.26348 
L 350.712022 56.710701 
L 351.797823 64.43759 
L 352.883624 63.372814 
L 353.969425 56.902987 
L 355.055227 68.759051 
L 356.141028 64.313208 
L 357.226829 61.447837 
L 358.31263 60.784128 
L 359.398431 58.96488 
L 360.484232 58.587309 
L 361.570033 56.525407 
L 362.655835 59.684893 
L 363.741636 59.899626 
L 364.827437 56.004467 
L 365.913238 55.363461 
L 366.999039 65.905818 
L 368.08484 62.465175 
L 369.170642 62.315819 
L 370.256443 63.291954 
L 371.342244 59.608185 
L 372.428045 66.496747 
L 373.513846 58.320388 
L 374.599647 67.395859 
L 375.685448 60.485906 
L 376.77125 63.575344 
L 377.857051 65.734862 
L 378.942852 62.476781 
L 380.028653 60.734225 
L 381.114454 60.851486 
L 382.200255 58.603472 
L 383.286057 62.427828 
L 384.371858 65.223579 
L 385.457659 64.555586 
L 386.54346 70.366546 
L 387.629261 67.830904 
L 388.715062 65.855939 
L 389.800863 63.535993 
L 390.886665 64.372249 
L 391.972466 62.621112 
L 393.058267 68.611788 
L 394.144068 69.586375 
L 395.229869 62.363859 
L 396.31567 62.110855 
L 397.401472 58.430323 
L 398.487273 61.615624 
L 398.487273 61.615624 
" style="fill:none;stroke:#008000;stroke-dasharray:9.6,2.4,1.5,2.4;stroke-dashoffset:0;stroke-width:1.5;"/>
   </g>
   <g id="line2d_30">
    <path clip-path="url(#pdf7c541f09)" d="M 73.832727 87.548988 
L 398.487273 87.548656 
L 398.487273 87.548656 
" style="fill:none;stroke:#ff0000;stroke-linecap:square;stroke-width:1.5;"/>
   </g>
   <g id="patch_3">
    <path d="M 57.6 307.584 
L 57.6 41.472 
" style="fill:none;stroke:#000000;stroke-linecap:square;stroke-linejoin:miter;stroke-width:0.8;"/>
   </g>
   <g id="patch_4">
    <path d="M 414.72 307.584 
L 414.72 41.472 
" style="fill:none;stroke:#000000;stroke-linecap:square;stroke-linejoin:miter;stroke-width:0.8;"/>
   </g>
   <g id="patch_5">
    <path d="M 57.6 307.584 
L 414.72 307.584 
" style="fill:none;stroke:#000000;stroke-linecap:square;stroke-linejoin:miter;stroke-width:0.8;"/>
   </g>
   <g id="patch_6">
    <path d="M 57.6 41.472 
L 414.72 41.472 
" style="fill:none;stroke:#000000;stroke-linecap:square;stroke-linejoin:miter;stroke-width:0.8;"/>
   </g>
   <g id="text_16">
    <!-- Population's average and best fitness -->
    <defs>
     <path d="M 19.671875 64.796875 
L 19.671875 37.40625 
L 32.078125 37.40625 
Q 38.96875 37.40625 42.71875 40.96875 
Q 46.484375 44.53125 46.484375 51.125 
Q 46.484375 57.671875 42.71875 61.234375 
Q 38.96875 64.796875 32.078125 64.796875 
z
M 9.8125 72.90625 
L 32.078125 72.90625 
Q 44.34375 72.90625 50.609375 67.359375 
Q 56.890625 61.8125 56.890625 51.125 
Q 56.890625 40.328125 50.609375 34.8125 
Q 44.34375 29.296875 32.078125 29.296875 
L 19.671875 29.296875 
L 19.671875 0 
L 9.8125 0 
z
" id="DejaVuSans-80"/>
     <path d="M 18.109375 8.203125 
L 18.109375 -20.796875 
L 9.078125 -20.796875 
L 9.078125 54.6875 
L 18.109375 54.6875 
L 18.109375 46.390625 
Q 20.953125 51.265625 25.265625 53.625 
Q 29.59375 56 35.59375 56 
Q 45.5625 56 51.78125 48.09375 
Q 58.015625 40.1875 58.015625 27.296875 
Q 58.015625 14.40625 51.78125 6.484375 
Q 45.5625 -1.421875 35.59375 -1.421875 
Q 29.59375 -1.421875 25.265625 0.953125 
Q 20.953125 3.328125 18.109375 8.203125 
z
M 48.6875 27.296875 
Q 48.6875 37.203125 44.609375 42.84375 
Q 40.53125 48.484375 33.40625 48.484375 
Q 26.265625 48.484375 22.1875 42.84375 
Q 18.109375 37.203125 18.109375 27.296875 
Q 18.109375 17.390625 22.1875 11.75 
Q 26.265625 6.109375 33.40625 6.109375 
Q 40.53125 6.109375 44.609375 11.75 
Q 48.6875 17.390625 48.6875 27.296875 
z
" id="DejaVuSans-112"/>
     <path d="M 8.5 21.578125 
L 8.5 54.6875 
L 17.484375 54.6875 
L 17.484375 21.921875 
Q 17.484375 14.15625 20.5 10.265625 
Q 23.53125 6.390625 29.59375 6.390625 
Q 36.859375 6.390625 41.078125 11.03125 
Q 45.3125 15.671875 45.3125 23.6875 
L 45.3125 54.6875 
L 54.296875 54.6875 
L 54.296875 0 
L 45.3125 0 
L 45.3125 8.40625 
Q 42.046875 3.421875 37.71875 1 
Q 33.40625 -1.421875 27.6875 -1.421875 
Q 18.265625 -1.421875 13.375 4.4375 
Q 8.5 10.296875 8.5 21.578125 
z
M 31.109375 56 
z
" id="DejaVuSans-117"/>
     <path d="M 9.421875 75.984375 
L 18.40625 75.984375 
L 18.40625 0 
L 9.421875 0 
z
" id="DejaVuSans-108"/>
     <path d="M 17.921875 72.90625 
L 17.921875 45.796875 
L 9.625 45.796875 
L 9.625 72.90625 
z
" id="DejaVuSans-39"/>
     <path id="DejaVuSans-32"/>
     <path d="M 2.984375 54.6875 
L 12.5 54.6875 
L 29.59375 8.796875 
L 46.6875 54.6875 
L 56.203125 54.6875 
L 35.6875 0 
L 23.484375 0 
z
" id="DejaVuSans-118"/>
     <path d="M 45.40625 27.984375 
Q 45.40625 37.75 41.375 43.109375 
Q 37.359375 48.484375 30.078125 48.484375 
Q 22.859375 48.484375 18.828125 43.109375 
Q 14.796875 37.75 14.796875 27.984375 
Q 14.796875 18.265625 18.828125 12.890625 
Q 22.859375 7.515625 30.078125 7.515625 
Q 37.359375 7.515625 41.375 12.890625 
Q 45.40625 18.265625 45.40625 27.984375 
z
M 54.390625 6.78125 
Q 54.390625 -7.171875 48.1875 -13.984375 
Q 42 -20.796875 29.203125 -20.796875 
Q 24.46875 -20.796875 20.265625 -20.09375 
Q 16.0625 -19.390625 12.109375 -17.921875 
L 12.109375 -9.1875 
Q 16.0625 -11.328125 19.921875 -12.34375 
Q 23.78125 -13.375 27.78125 -13.375 
Q 36.625 -13.375 41.015625 -8.765625 
Q 45.40625 -4.15625 45.40625 5.171875 
L 45.40625 9.625 
Q 42.625 4.78125 38.28125 2.390625 
Q 33.9375 0 27.875 0 
Q 17.828125 0 11.671875 7.65625 
Q 5.515625 15.328125 5.515625 27.984375 
Q 5.515625 40.671875 11.671875 48.328125 
Q 17.828125 56 27.875 56 
Q 33.9375 56 38.28125 53.609375 
Q 42.625 51.21875 45.40625 46.390625 
L 45.40625 54.6875 
L 54.390625 54.6875 
z
" id="DejaVuSans-103"/>
     <path d="M 45.40625 46.390625 
L 45.40625 75.984375 
L 54.390625 75.984375 
L 54.390625 0 
L 45.40625 0 
L 45.40625 8.203125 
Q 42.578125 3.328125 38.25 0.953125 
Q 33.9375 -1.421875 27.875 -1.421875 
Q 17.96875 -1.421875 11.734375 6.484375 
Q 5.515625 14.40625 5.515625 27.296875 
Q 5.515625 40.1875 11.734375 48.09375 
Q 17.96875 56 27.875 56 
Q 33.9375 56 38.25 53.625 
Q 42.578125 51.265625 45.40625 46.390625 
z
M 14.796875 27.296875 
Q 14.796875 17.390625 18.875 11.75 
Q 22.953125 6.109375 30.078125 6.109375 
Q 37.203125 6.109375 41.296875 11.75 
Q 45.40625 17.390625 45.40625 27.296875 
Q 45.40625 37.203125 41.296875 42.84375 
Q 37.203125 48.484375 30.078125 48.484375 
Q 22.953125 48.484375 18.875 42.84375 
Q 14.796875 37.203125 14.796875 27.296875 
z
" id="DejaVuSans-100"/>
     <path d="M 48.6875 27.296875 
Q 48.6875 37.203125 44.609375 42.84375 
Q 40.53125 48.484375 33.40625 48.484375 
Q 26.265625 48.484375 22.1875 42.84375 
Q 18.109375 37.203125 18.109375 27.296875 
Q 18.109375 17.390625 22.1875 11.75 
Q 26.265625 6.109375 33.40625 6.109375 
Q 40.53125 6.109375 44.609375 11.75 
Q 48.6875 17.390625 48.6875 27.296875 
z
M 18.109375 46.390625 
Q 20.953125 51.265625 25.265625 53.625 
Q 29.59375 56 35.59375 56 
Q 45.5625 56 51.78125 48.09375 
Q 58.015625 40.1875 58.015625 27.296875 
Q 58.015625 14.40625 51.78125 6.484375 
Q 45.5625 -1.421875 35.59375 -1.421875 
Q 29.59375 -1.421875 25.265625 0.953125 
Q 20.953125 3.328125 18.109375 8.203125 
L 18.109375 0 
L 9.078125 0 
L 9.078125 75.984375 
L 18.109375 75.984375 
z
" id="DejaVuSans-98"/>
     <path d="M 37.109375 75.984375 
L 37.109375 68.5 
L 28.515625 68.5 
Q 23.6875 68.5 21.796875 66.546875 
Q 19.921875 64.59375 19.921875 59.515625 
L 19.921875 54.6875 
L 34.71875 54.6875 
L 34.71875 47.703125 
L 19.921875 47.703125 
L 19.921875 0 
L 10.890625 0 
L 10.890625 47.703125 
L 2.296875 47.703125 
L 2.296875 54.6875 
L 10.890625 54.6875 
L 10.890625 58.5 
Q 10.890625 67.625 15.140625 71.796875 
Q 19.390625 75.984375 28.609375 75.984375 
z
" id="DejaVuSans-102"/>
    </defs>
    <g transform="translate(123.529687 35.472)scale(0.12 -0.12)">
     <use xlink:href="#DejaVuSans-80"/>
     <use x="56.677734" xlink:href="#DejaVuSans-111"/>
     <use x="117.859375" xlink:href="#DejaVuSans-112"/>
     <use x="181.335938" xlink:href="#DejaVuSans-117"/>
     <use x="244.714844" xlink:href="#DejaVuSans-108"/>
     <use x="272.498047" xlink:href="#DejaVuSans-97"/>
     <use x="333.777344" xlink:href="#DejaVuSans-116"/>
     <use x="372.986328" xlink:href="#DejaVuSans-105"/>
     <use x="400.769531" xlink:href="#DejaVuSans-111"/>
     <use x="461.951172" xlink:href="#DejaVuSans-110"/>
     <use x="525.330078" xlink:href="#DejaVuSans-39"/>
     <use x="552.820312" xlink:href="#DejaVuSans-115"/>
     <use x="604.919922" xlink:href="#DejaVuSans-32"/>
     <use x="636.707031" xlink:href="#DejaVuSans-97"/>
     <use x="697.986328" xlink:href="#DejaVuSans-118"/>
     <use x="757.166016" xlink:href="#DejaVuSans-101"/>
     <use x="818.689453" xlink:href="#DejaVuSans-114"/>
     <use x="859.802734" xlink:href="#DejaVuSans-97"/>
     <use x="921.082031" xlink:href="#DejaVuSans-103"/>
     <use x="984.558594" xlink:href="#DejaVuSans-101"/>
     <use x="1046.082031" xlink:href="#DejaVuSans-32"/>
     <use x="1077.869141" xlink:href="#DejaVuSans-97"/>
     <use x="1139.148438" xlink:href="#DejaVuSans-110"/>
     <use x="1202.527344" xlink:href="#DejaVuSans-100"/>
     <use x="1266.003906" xlink:href="#DejaVuSans-32"/>
     <use x="1297.791016" xlink:href="#DejaVuSans-98"/>
     <use x="1361.267578" xlink:href="#DejaVuSans-101"/>
     <use x="1422.791016" xlink:href="#DejaVuSans-115"/>
     <use x="1474.890625" xlink:href="#DejaVuSans-116"/>
     <use x="1514.099609" xlink:href="#DejaVuSans-32"/>
     <use x="1545.886719" xlink:href="#DejaVuSans-102"/>
     <use x="1581.091797" xlink:href="#DejaVuSans-105"/>
     <use x="1608.875" xlink:href="#DejaVuSans-116"/>
     <use x="1648.083984" xlink:href="#DejaVuSans-110"/>
     <use x="1711.462891" xlink:href="#DejaVuSans-101"/>
     <use x="1772.986328" xlink:href="#DejaVuSans-115"/>
     <use x="1825.085938" xlink:href="#DejaVuSans-115"/>
    </g>
   </g>
   <g id="legend_1">
    <g id="patch_7">
     <path d="M 64.6 302.584 
L 137.540625 302.584 
Q 139.540625 302.584 139.540625 300.584 
L 139.540625 242.8715 
Q 139.540625 240.8715 137.540625 240.8715 
L 64.6 240.8715 
Q 62.6 240.8715 62.6 242.8715 
L 62.6 300.584 
Q 62.6 302.584 64.6 302.584 
z
" style="fill:#ffffff;opacity:0.8;stroke:#cccccc;stroke-linejoin:miter;"/>
    </g>
    <g id="line2d_31">
     <path d="M 66.6 248.969937 
L 86.6 248.969937 
" style="fill:none;stroke:#0000ff;stroke-linecap:square;stroke-width:1.5;"/>
    </g>
    <g id="line2d_32"/>
    <g id="text_17">
     <!-- average -->
     <g transform="translate(94.6 252.469937)scale(0.1 -0.1)">
      <use xlink:href="#DejaVuSans-97"/>
      <use x="61.279297" xlink:href="#DejaVuSans-118"/>
      <use x="120.458984" xlink:href="#DejaVuSans-101"/>
      <use x="181.982422" xlink:href="#DejaVuSans-114"/>
      <use x="223.095703" xlink:href="#DejaVuSans-97"/>
      <use x="284.375" xlink:href="#DejaVuSans-103"/>
      <use x="347.851562" xlink:href="#DejaVuSans-101"/>
     </g>
    </g>
    <g id="line2d_33">
     <path d="M 66.6 263.648062 
L 86.6 263.648062 
" style="fill:none;stroke:#008000;stroke-dasharray:9.6,2.4,1.5,2.4;stroke-dashoffset:0;stroke-width:1.5;"/>
    </g>
    <g id="line2d_34"/>
    <g id="text_18">
     <!-- -1 sd -->
     <defs>
      <path d="M 4.890625 31.390625 
L 31.203125 31.390625 
L 31.203125 23.390625 
L 4.890625 23.390625 
z
" id="DejaVuSans-45"/>
     </defs>
     <g transform="translate(94.6 267.148062)scale(0.1 -0.1)">
      <use xlink:href="#DejaVuSans-45"/>
      <use x="36.083984" xlink:href="#DejaVuSans-49"/>
      <use x="99.707031" xlink:href="#DejaVuSans-32"/>
      <use x="131.494141" xlink:href="#DejaVuSans-115"/>
      <use x="183.59375" xlink:href="#DejaVuSans-100"/>
     </g>
    </g>
    <g id="line2d_35">
     <path d="M 66.6 278.326187 
L 86.6 278.326187 
" style="fill:none;stroke:#008000;stroke-dasharray:9.6,2.4,1.5,2.4;stroke-dashoffset:0;stroke-width:1.5;"/>
    </g>
    <g id="line2d_36"/>
    <g id="text_19">
     <!-- +1 sd -->
     <defs>
      <path d="M 46 62.703125 
L 46 35.5 
L 73.1875 35.5 
L 73.1875 27.203125 
L 46 27.203125 
L 46 0 
L 37.796875 0 
L 37.796875 27.203125 
L 10.59375 27.203125 
L 10.59375 35.5 
L 37.796875 35.5 
L 37.796875 62.703125 
z
" id="DejaVuSans-43"/>
     </defs>
     <g transform="translate(94.6 281.826187)scale(0.1 -0.1)">
      <use xlink:href="#DejaVuSans-43"/>
      <use x="83.789062" xlink:href="#DejaVuSans-49"/>
      <use x="147.412109" xlink:href="#DejaVuSans-32"/>
      <use x="179.199219" xlink:href="#DejaVuSans-115"/>
      <use x="231.298828" xlink:href="#DejaVuSans-100"/>
     </g>
    </g>
    <g id="line2d_37">
     <path d="M 66.6 293.004312 
L 86.6 293.004312 
" style="fill:none;stroke:#ff0000;stroke-linecap:square;stroke-width:1.5;"/>
    </g>
    <g id="line2d_38"/>
    <g id="text_20">
     <!-- best -->
     <g transform="translate(94.6 296.504312)scale(0.1 -0.1)">
      <use xlink:href="#DejaVuSans-98"/>
      <use x="63.476562" xlink:href="#DejaVuSans-101"/>
      <use x="125" xlink:href="#DejaVuSans-115"/>
      <use x="177.099609" xlink:href="#DejaVuSans-116"/>
     </g>
    </g>
   </g>
  </g>
 </g>
 <defs>
  <clipPath id="pdf7c541f09">
   <rect height="266.112" width="357.12" x="57.6" y="41.472"/>
  </clipPath>
 </defs>
</svg>
