<?xml version="1.0" encoding="UTF-8" standalone="no"?>
<!DOCTYPE svg PUBLIC "-//W3C//DTD SVG 1.1//EN"
 "http://www.w3.org/Graphics/SVG/1.1/DTD/svg11.dtd">
<!-- Generated by graphviz version 2.38.0 (20140413.2041)
 -->
<!-- Title: %3 Pages: 1 -->
<svg width="238pt" height="305pt"
 viewBox="0.00 0.00 237.79 305.12" xmlns="http://www.w3.org/2000/svg" xmlns:xlink="http://www.w3.org/1999/xlink">
<g id="graph0" class="graph" transform="scale(1 1) rotate(0) translate(4 301.12)">
<title>%3</title>
<polygon fill="white" stroke="none" points="-4,4 -4,-301.12 233.79,-301.12 233.79,4 -4,4"/>
<!-- sepal length (cm) -->
<g id="node1" class="node"><title>sepal length (cm)</title>
<polygon fill="lightgray" stroke="black" points="84.5772,-297.12 6.57716,-297.12 6.57716,-279.12 84.5772,-279.12 84.5772,-297.12"/>
<text text-anchor="middle" x="45.5772" y="-285.92" font-family="Times New Roman,serif" font-size="9.00">sepal length (cm)</text>
</g>
<!-- setosa -->
<g id="node3" class="node"><title>setosa</title>
<ellipse fill="lightblue" stroke="black" cx="27.5772" cy="-215.543" rx="27.6545" ry="27.6545"/>
<text text-anchor="middle" x="27.5772" y="-213.343" font-family="Times New Roman,serif" font-size="9.00">setosa</text>
</g>
<!-- sepal length (cm)&#45;&gt;setosa -->
<g id="edge1" class="edge"><title>sepal length (cm)&#45;&gt;setosa</title>
<path fill="none" stroke="green" stroke-width="0.906954" d="M43.5123,-279.024C41.8086,-272.343 39.2635,-262.364 36.7047,-252.331"/>
<polygon fill="green" stroke="green" stroke-width="0.906954" points="40.0347,-251.225 34.1719,-242.4 33.2518,-252.955 40.0347,-251.225"/>
</g>
<!-- virginica -->
<g id="node5" class="node"><title>virginica</title>
<ellipse fill="lightblue" stroke="black" cx="154.577" cy="-36.7696" rx="33.4697" ry="33.4697"/>
<text text-anchor="middle" x="154.577" y="-34.5696" font-family="Times New Roman,serif" font-size="9.00">virginica</text>
</g>
<!-- sepal length (cm)&#45;&gt;virginica -->
<g id="edge2" class="edge"><title>sepal length (cm)&#45;&gt;virginica</title>
<path fill="none" stroke="red" stroke-width="0.269618" stroke-dasharray="1,5" d="M49.0803,-279.106C62.5009,-248.405 111.202,-136.996 137.482,-76.8765"/>
<polygon fill="red" stroke="red" stroke-width="0.269618" points="140.7,-78.253 141.499,-67.6883 134.286,-75.4492 140.7,-78.253"/>
</g>
<!-- petal length (cm) -->
<g id="node2" class="node"><title>petal length (cm)</title>
<polygon fill="lightgray" stroke="black" points="189.077,-297.12 112.077,-297.12 112.077,-279.12 189.077,-279.12 189.077,-297.12"/>
<text text-anchor="middle" x="150.577" y="-285.92" font-family="Times New Roman,serif" font-size="9.00">petal length (cm)</text>
</g>
<!-- petal length (cm)&#45;&gt;setosa -->
<g id="edge3" class="edge"><title>petal length (cm)&#45;&gt;setosa</title>
<path fill="none" stroke="red" stroke-width="1.7922" d="M136.468,-279.024C117.921,-268.382 84.7864,-249.369 59.9228,-235.103"/>
<polygon fill="red" stroke="red" stroke-width="1.7922" points="61.5946,-232.027 51.1791,-230.085 58.1107,-238.098 61.5946,-232.027"/>
</g>
<!-- versicolor -->
<g id="node4" class="node"><title>versicolor</title>
<ellipse fill="lightblue" stroke="black" cx="54.5772" cy="-36.7696" rx="36.5405" ry="36.5405"/>
<text text-anchor="middle" x="54.5772" y="-34.5696" font-family="Times New Roman,serif" font-size="9.00">versicolor</text>
</g>
<!-- petal length (cm)&#45;&gt;versicolor -->
<g id="edge4" class="edge"><title>petal length (cm)&#45;&gt;versicolor</title>
<path fill="none" stroke="green" stroke-width="1.22444" stroke-dasharray="1,5" d="M147.492,-279.106C135.916,-249.038 94.535,-141.556 71.0898,-80.6595"/>
<polygon fill="green" stroke="green" stroke-width="1.22444" points="74.3476,-79.3797 67.4883,-71.305 67.815,-81.8948 74.3476,-79.3797"/>
</g>
<!-- 35 -->
<g id="node6" class="node"><title>35</title>
<ellipse fill="white" stroke="black" cx="167.577" cy="-130.752" rx="18.2703" ry="18.2703"/>
<text text-anchor="middle" x="167.577" y="-128.552" font-family="Times New Roman,serif" font-size="9.00">35</text>
</g>
<!-- petal length (cm)&#45;&gt;35 -->
<g id="edge6" class="edge"><title>petal length (cm)&#45;&gt;35</title>
<path fill="none" stroke="red" stroke-width="0.274626" d="M151.491,-278.767C153.916,-256.604 160.597,-195.543 164.545,-159.465"/>
<polygon fill="red" stroke="red" stroke-width="0.274626" points="168.066,-159.463 165.674,-149.141 161.107,-158.701 168.066,-159.463"/>
</g>
<!-- 379 -->
<g id="node8" class="node"><title>379</title>
<ellipse fill="white" stroke="black" cx="208.577" cy="-215.543" rx="21.4286" ry="21.4286"/>
<text text-anchor="middle" x="208.577" y="-213.343" font-family="Times New Roman,serif" font-size="9.00">379</text>
</g>
<!-- petal length (cm)&#45;&gt;379 -->
<g id="edge9" class="edge"><title>petal length (cm)&#45;&gt;379</title>
<path fill="none" stroke="green" stroke-width="0.3983" d="M157.231,-279.024C164.919,-269.669 177.923,-253.844 188.921,-240.462"/>
<polygon fill="green" stroke="green" stroke-width="0.3983" points="191.798,-242.473 195.443,-232.525 186.39,-238.028 191.798,-242.473"/>
</g>
<!-- 118 -->
<g id="node7" class="node"><title>118</title>
<ellipse fill="white" stroke="black" cx="30.5772" cy="-130.752" rx="21.4286" ry="21.4286"/>
<text text-anchor="middle" x="30.5772" y="-128.552" font-family="Times New Roman,serif" font-size="9.00">118</text>
</g>
<!-- setosa&#45;&gt;118 -->
<g id="edge8" class="edge"><title>setosa&#45;&gt;118</title>
<path fill="none" stroke="red" stroke-width="0.345539" d="M28.5429,-187.892C28.8392,-179.715 29.1674,-170.656 29.4723,-162.244"/>
<polygon fill="red" stroke="red" stroke-width="0.345539" points="32.9771,-162.17 29.8417,-152.05 25.9817,-161.916 32.9771,-162.17"/>
</g>
<!-- 35&#45;&gt;virginica -->
<g id="edge5" class="edge"><title>35&#45;&gt;virginica</title>
<path fill="none" stroke="red" stroke-width="0.627375" d="M165.132,-112.451C163.824,-103.193 162.15,-91.3535 160.523,-79.8432"/>
<polygon fill="red" stroke="red" stroke-width="0.627375" points="163.981,-79.2979 159.116,-69.8862 157.05,-80.2776 163.981,-79.2979"/>
</g>
<!-- 118&#45;&gt;versicolor -->
<g id="edge7" class="edge"><title>118&#45;&gt;versicolor</title>
<path fill="none" stroke="red" stroke-width="0.461514" d="M35.7848,-109.793C37.8926,-101.715 40.4173,-92.0389 42.9219,-82.4396"/>
<polygon fill="red" stroke="red" stroke-width="0.461514" points="46.3684,-83.0938 45.5065,-72.534 39.5951,-81.3264 46.3684,-83.0938"/>
</g>
<!-- 379&#45;&gt;35 -->
<g id="edge10" class="edge"><title>379&#45;&gt;35</title>
<path fill="none" stroke="red" stroke-width="0.138294" stroke-dasharray="1,5" d="M199.478,-196.169C193.725,-184.553 186.216,-169.39 179.929,-156.694"/>
<polygon fill="red" stroke="red" stroke-width="0.138294" points="182.983,-154.973 175.408,-147.565 176.71,-158.08 182.983,-154.973"/>
</g>
</g>
</svg>
