<?xml version="1.0" encoding="UTF-8" standalone="no"?>
<!DOCTYPE svg PUBLIC "-//W3C//DTD SVG 1.1//EN"
 "http://www.w3.org/Graphics/SVG/1.1/DTD/svg11.dtd">
<!-- Generated by graphviz version 2.38.0 (20140413.2041)
 -->
<!-- Title: %3 Pages: 1 -->
<svg width="250pt" height="415pt"
 viewBox="0.00 0.00 250.46 414.66" xmlns="http://www.w3.org/2000/svg" xmlns:xlink="http://www.w3.org/1999/xlink">
<g id="graph0" class="graph" transform="scale(1 1) rotate(0) translate(4 410.659)">
<title>%3</title>
<polygon fill="white" stroke="none" points="-4,4 -4,-410.659 246.459,-410.659 246.459,4 -4,4"/>
<!-- sepal length (cm) -->
<g id="node1" class="node"><title>sepal length (cm)</title>
<polygon fill="lightgray" stroke="black" points="228.63,-336.91 150.63,-336.91 150.63,-318.91 228.63,-318.91 228.63,-336.91"/>
<text text-anchor="middle" x="189.63" y="-325.71" font-family="Times New Roman,serif" font-size="9.00">sepal length (cm)</text>
</g>
<!-- setosa -->
<g id="node3" class="node"><title>setosa</title>
<ellipse fill="lightblue" stroke="black" cx="175.63" cy="-36.7696" rx="27.6545" ry="27.6545"/>
<text text-anchor="middle" x="175.63" y="-34.5696" font-family="Times New Roman,serif" font-size="9.00">setosa</text>
</g>
<!-- sepal length (cm)&#45;&gt;setosa -->
<g id="edge1" class="edge"><title>sepal length (cm)&#45;&gt;setosa</title>
<path fill="none" stroke="green" stroke-width="0.545336" d="M192.433,-318.525C196.097,-307.078 202.321,-285.842 204.63,-267.161 213.105,-198.601 197.08,-118.554 185.665,-73.4476"/>
<polygon fill="green" stroke="green" stroke-width="0.545336" points="188.999,-72.3622 183.095,-63.5649 182.225,-74.1239 188.999,-72.3622"/>
</g>
<!-- virginica -->
<g id="node5" class="node"><title>virginica</title>
<ellipse fill="lightblue" stroke="black" cx="162.63" cy="-233.927" rx="33.4697" ry="33.4697"/>
<text text-anchor="middle" x="162.63" y="-231.727" font-family="Times New Roman,serif" font-size="9.00">virginica</text>
</g>
<!-- sepal length (cm)&#45;&gt;virginica -->
<g id="edge2" class="edge"><title>sepal length (cm)&#45;&gt;virginica</title>
<path fill="none" stroke="red" stroke-width="0.660036" d="M187.234,-318.747C184.391,-309.062 179.44,-292.195 174.722,-276.119"/>
<polygon fill="red" stroke="red" stroke-width="0.660036" points="178.009,-274.893 171.834,-266.283 171.293,-276.864 178.009,-274.893"/>
</g>
<!-- petal length (cm) -->
<g id="node2" class="node"><title>petal length (cm)</title>
<polygon fill="lightgray" stroke="black" points="220.13,-406.659 143.13,-406.659 143.13,-388.659 220.13,-388.659 220.13,-406.659"/>
<text text-anchor="middle" x="181.63" y="-395.459" font-family="Times New Roman,serif" font-size="9.00">petal length (cm)</text>
</g>
<!-- petal length (cm)&#45;&gt;setosa -->
<g id="edge3" class="edge"><title>petal length (cm)&#45;&gt;setosa</title>
<path fill="none" stroke="red" stroke-width="1.34367" d="M198.85,-388.561C212.164,-381.252 229.631,-369.117 237.63,-352.659 247.247,-332.873 239.098,-325.111 237.63,-303.161 231.84,-216.528 237.224,-192.508 211.63,-109.539 207.439,-95.9524 200.873,-81.799 194.489,-69.6874"/>
<polygon fill="red" stroke="red" stroke-width="1.34367" points="197.542,-67.9751 189.686,-60.8668 191.395,-71.3229 197.542,-67.9751"/>
</g>
<!-- 9289 -->
<g id="node6" class="node"><title>9289</title>
<ellipse fill="white" stroke="black" cx="101.63" cy="-327.91" rx="25" ry="25"/>
<text text-anchor="middle" x="101.63" y="-325.71" font-family="Times New Roman,serif" font-size="9.00">9289</text>
</g>
<!-- petal length (cm)&#45;&gt;9289 -->
<g id="edge4" class="edge"><title>petal length (cm)&#45;&gt;9289</title>
<path fill="none" stroke="green" stroke-width="0.41071" d="M172.139,-388.621C161.383,-379.512 143.381,-364.267 128.26,-351.462"/>
<polygon fill="green" stroke="green" stroke-width="0.41071" points="130.113,-348.444 120.22,-344.653 125.589,-353.786 130.113,-348.444"/>
</g>
<!-- versicolor -->
<g id="node4" class="node"><title>versicolor</title>
<ellipse fill="lightblue" stroke="black" cx="45.6304" cy="-36.7696" rx="36.5405" ry="36.5405"/>
<text text-anchor="middle" x="45.6304" y="-34.5696" font-family="Times New Roman,serif" font-size="9.00">versicolor</text>
</g>
<!-- 9289&#45;&gt;setosa -->
<g id="edge6" class="edge"><title>9289&#45;&gt;setosa</title>
<path fill="none" stroke="red" stroke-width="0.399237" d="M103.967,-302.94C106.753,-277.37 112.133,-235.8 120.63,-200.693 131.578,-155.465 149.585,-104.912 161.996,-72.2862"/>
<polygon fill="red" stroke="red" stroke-width="0.399237" points="165.335,-73.3523 165.653,-62.7623 158.801,-70.8425 165.335,-73.3523"/>
</g>
<!-- 9289&#45;&gt;virginica -->
<g id="edge5" class="edge"><title>9289&#45;&gt;virginica</title>
<path fill="none" stroke="green" stroke-width="1.94018" d="M114.866,-306.951C121.927,-296.305 130.828,-282.882 139.027,-270.519"/>
<polygon fill="green" stroke="green" stroke-width="1.94018" points="141.951,-272.444 144.56,-262.175 136.117,-268.575 141.951,-272.444"/>
</g>
<!-- 19731 -->
<g id="node7" class="node"><title>19731</title>
<ellipse fill="white" stroke="black" cx="45.6304" cy="-137.116" rx="27.6545" ry="27.6545"/>
<text text-anchor="middle" x="45.6304" y="-134.916" font-family="Times New Roman,serif" font-size="9.00">19731</text>
</g>
<!-- 9289&#45;&gt;19731 -->
<g id="edge7" class="edge"><title>9289&#45;&gt;19731</title>
<path fill="none" stroke="green" stroke-width="0.188884" stroke-dasharray="1,5" d="M77.992,-319.211C55.5891,-310.504 23.2558,-293.941 8.63035,-267.161 -5.52916,-241.235 0.836541,-229.188 8.63035,-200.693 11.7406,-189.322 17.5069,-177.918 23.5771,-168.019"/>
<polygon fill="green" stroke="green" stroke-width="0.188884" points="26.6651,-169.69 29.1696,-159.395 20.7919,-165.881 26.6651,-169.69"/>
</g>
<!-- 19800 -->
<g id="node8" class="node"><title>19800</title>
<ellipse fill="white" stroke="black" cx="45.6304" cy="-233.927" rx="27.6545" ry="27.6545"/>
<text text-anchor="middle" x="45.6304" y="-231.727" font-family="Times New Roman,serif" font-size="9.00">19800</text>
</g>
<!-- 9289&#45;&gt;19800 -->
<g id="edge9" class="edge"><title>9289&#45;&gt;19800</title>
<path fill="none" stroke="red" stroke-width="0.312072" d="M89.2021,-306.496C82.0809,-294.799 72.9893,-279.866 64.9551,-266.669"/>
<polygon fill="red" stroke="red" stroke-width="0.312072" points="67.7888,-264.593 59.599,-257.872 61.8097,-268.233 67.7888,-264.593"/>
</g>
<!-- 19731&#45;&gt;setosa -->
<g id="edge8" class="edge"><title>19731&#45;&gt;setosa</title>
<path fill="none" stroke="green" stroke-width="0.196396" d="M67.3894,-119.655C88.8557,-103.416 121.837,-78.4647 145.753,-60.3723"/>
<polygon fill="green" stroke="green" stroke-width="0.196396" points="147.937,-63.1088 153.8,-54.2843 143.714,-57.5263 147.937,-63.1088"/>
</g>
<!-- 19731&#45;&gt;versicolor -->
<g id="edge11" class="edge"><title>19731&#45;&gt;versicolor</title>
<path fill="none" stroke="green" stroke-width="0.244465" d="M45.6304,-109.502C45.6304,-101.57 45.6304,-92.6382 45.6304,-83.8393"/>
<polygon fill="green" stroke="green" stroke-width="0.244465" points="49.1304,-83.6391 45.6304,-73.6391 42.1304,-83.6392 49.1304,-83.6391"/>
</g>
<!-- 19800&#45;&gt;19731 -->
<g id="edge10" class="edge"><title>19800&#45;&gt;19731</title>
<path fill="none" stroke="red" stroke-width="0.346329" d="M45.6304,-206.265C45.6304,-196.57 45.6304,-185.434 45.6304,-175.012"/>
<polygon fill="red" stroke="red" stroke-width="0.346329" points="49.1305,-174.907 45.6304,-164.907 42.1305,-174.907 49.1305,-174.907"/>
</g>
</g>
</svg>
