<?xml version="1.0" encoding="UTF-8" standalone="no"?>
<!DOCTYPE svg PUBLIC "-//W3C//DTD SVG 1.1//EN"
 "http://www.w3.org/Graphics/SVG/1.1/DTD/svg11.dtd">
<!-- Generated by graphviz version 2.38.0 (20140413.2041)
 -->
<!-- Title: %3 Pages: 1 -->
<svg width="230pt" height="109pt"
 viewBox="0.00 0.00 230.00 108.67" xmlns="http://www.w3.org/2000/svg" xmlns:xlink="http://www.w3.org/1999/xlink">
<g id="graph0" class="graph" transform="scale(1 1) rotate(0) translate(4 104.669)">
<title>%3</title>
<polygon fill="white" stroke="none" points="-4,4 -4,-104.669 226,-104.669 226,4 -4,4"/>
<!-- sepal l -->
<g id="node1" class="node"><title>sepal l</title>
<polygon fill="lightgray" stroke="black" points="40,-100.669 0,-100.669 0,-82.669 40,-82.669 40,-100.669"/>
<text text-anchor="middle" x="20" y="-89.469" font-family="Times New Roman,serif" font-size="9.00">sepal l</text>
</g>
<!-- sepal w -->
<g id="node2" class="node"><title>sepal w</title>
<polygon fill="lightgray" stroke="black" points="102,-100.669 58,-100.669 58,-82.669 102,-82.669 102,-100.669"/>
<text text-anchor="middle" x="80" y="-89.469" font-family="Times New Roman,serif" font-size="9.00">sepal w</text>
</g>
<!-- label -->
<g id="node5" class="node"><title>label</title>
<ellipse fill="lightblue" stroke="black" cx="110" cy="-23.3345" rx="23.1702" ry="23.1702"/>
<text text-anchor="middle" x="110" y="-21.1345" font-family="Times New Roman,serif" font-size="9.00">label</text>
</g>
<!-- sepal w&#45;&gt;label -->
<g id="edge1" class="edge"><title>sepal w&#45;&gt;label</title>
<path fill="none" stroke="red" stroke-width="0.830377" d="M83.6786,-82.5351C86.913,-75.3835 91.8263,-64.5193 96.5356,-54.1063"/>
<polygon fill="red" stroke="red" stroke-width="0.830377" points="99.8174,-55.3434 100.749,-44.7897 93.4393,-52.4589 99.8174,-55.3434"/>
</g>
<!-- petal l -->
<g id="node3" class="node"><title>petal l</title>
<polygon fill="lightgray" stroke="black" points="159.5,-100.669 120.5,-100.669 120.5,-82.669 159.5,-82.669 159.5,-100.669"/>
<text text-anchor="middle" x="140" y="-89.469" font-family="Times New Roman,serif" font-size="9.00">petal l</text>
</g>
<!-- petal l&#45;&gt;label -->
<g id="edge2" class="edge"><title>petal l&#45;&gt;label</title>
<path fill="none" stroke="green" stroke-width="1.09715" d="M136.321,-82.5351C133.087,-75.3835 128.174,-64.5193 123.464,-54.1063"/>
<polygon fill="green" stroke="green" stroke-width="1.09715" points="126.561,-52.4589 119.251,-44.7897 120.183,-55.3434 126.561,-52.4589"/>
</g>
<!-- petal w -->
<g id="node4" class="node"><title>petal w</title>
<polygon fill="lightgray" stroke="black" points="222,-100.669 178,-100.669 178,-82.669 222,-82.669 222,-100.669"/>
<text text-anchor="middle" x="200" y="-89.469" font-family="Times New Roman,serif" font-size="9.00">petal w</text>
</g>
</g>
</svg>
