<?xml version="1.0" encoding="UTF-8" standalone="no"?>
<!DOCTYPE svg PUBLIC "-//W3C//DTD SVG 1.1//EN"
 "http://www.w3.org/Graphics/SVG/1.1/DTD/svg11.dtd">
<!-- Generated by graphviz version 2.38.0 (20140413.2041)
 -->
<!-- Title: %3 Pages: 1 -->
<svg width="404pt" height="214pt"
 viewBox="0.00 0.00 403.78 213.97" xmlns="http://www.w3.org/2000/svg" xmlns:xlink="http://www.w3.org/1999/xlink">
<g id="graph0" class="graph" transform="scale(1 1) rotate(0) translate(4 209.966)">
<title>%3</title>
<polygon fill="white" stroke="none" points="-4,4 -4,-209.966 399.779,-209.966 399.779,4 -4,4"/>
<!-- sepal length (cm) -->
<g id="node1" class="node"><title>sepal length (cm)</title>
<polygon fill="lightgray" stroke="black" points="297.566,-139.752 219.566,-139.752 219.566,-121.752 297.566,-121.752 297.566,-139.752"/>
<text text-anchor="middle" x="258.566" y="-128.552" font-family="Times New Roman,serif" font-size="9.00">sepal length (cm)</text>
</g>
<!-- setosa -->
<g id="node5" class="node"><title>setosa</title>
<ellipse fill="lightblue" stroke="black" cx="158.566" cy="-36.7696" rx="27.6545" ry="27.6545"/>
<text text-anchor="middle" x="158.566" y="-34.5696" font-family="Times New Roman,serif" font-size="9.00">setosa</text>
</g>
<!-- sepal length (cm)&#45;&gt;setosa -->
<g id="edge1" class="edge"><title>sepal length (cm)&#45;&gt;setosa</title>
<path fill="none" stroke="green" stroke-width="1.58792" stroke-dasharray="1,5" d="M249.691,-121.589C235.557,-108.589 207.356,-82.6483 186.05,-63.05"/>
<polygon fill="green" stroke="green" stroke-width="1.58792" points="188.28,-60.3461 178.551,-56.1522 183.541,-65.4981 188.28,-60.3461"/>
</g>
<!-- versicolor -->
<g id="node6" class="node"><title>versicolor</title>
<ellipse fill="lightblue" stroke="black" cx="258.566" cy="-36.7696" rx="36.5405" ry="36.5405"/>
<text text-anchor="middle" x="258.566" y="-34.5696" font-family="Times New Roman,serif" font-size="9.00">versicolor</text>
</g>
<!-- sepal length (cm)&#45;&gt;versicolor -->
<g id="edge2" class="edge"><title>sepal length (cm)&#45;&gt;versicolor</title>
<path fill="none" stroke="red" stroke-width="0.326857" stroke-dasharray="1,5" d="M258.566,-121.589C258.566,-112.957 258.566,-98.6183 258.566,-84.22"/>
<polygon fill="red" stroke="red" stroke-width="0.326857" points="262.066,-83.8059 258.566,-73.806 255.066,-83.806 262.066,-83.8059"/>
</g>
<!-- virginica -->
<g id="node7" class="node"><title>virginica</title>
<ellipse fill="lightblue" stroke="black" cx="71.5658" cy="-36.7696" rx="33.4697" ry="33.4697"/>
<text text-anchor="middle" x="71.5658" y="-34.5696" font-family="Times New Roman,serif" font-size="9.00">virginica</text>
</g>
<!-- sepal length (cm)&#45;&gt;virginica -->
<g id="edge3" class="edge"><title>sepal length (cm)&#45;&gt;virginica</title>
<path fill="none" stroke="red" stroke-width="1.11116" stroke-dasharray="1,5" d="M239.019,-121.674C230.048,-117.97 219.27,-113.525 209.566,-109.539 170.478,-93.4818 158.555,-93.9705 121.566,-73.5391 116.299,-70.6299 110.927,-67.2673 105.752,-63.7922"/>
<polygon fill="red" stroke="red" stroke-width="1.11116" points="107.488,-60.7367 97.2809,-57.8977 103.49,-66.4825 107.488,-60.7367"/>
</g>
<!-- sepal width (cm) -->
<g id="node2" class="node"><title>sepal width (cm)</title>
<polygon fill="lightgray" stroke="black" points="106.066,-139.752 29.0658,-139.752 29.0658,-121.752 106.066,-121.752 106.066,-139.752"/>
<text text-anchor="middle" x="67.5658" y="-128.552" font-family="Times New Roman,serif" font-size="9.00">sepal width (cm)</text>
</g>
<!-- sepal width (cm)&#45;&gt;setosa -->
<g id="edge4" class="edge"><title>sepal width (cm)&#45;&gt;setosa</title>
<path fill="none" stroke="green" stroke-width="0.691243" d="M75.6414,-121.589C88.2926,-108.802 113.329,-83.4947 132.598,-64.0181"/>
<polygon fill="green" stroke="green" stroke-width="0.691243" points="135.117,-66.4478 139.662,-56.8773 130.141,-61.5247 135.117,-66.4478"/>
</g>
<!-- sepal width (cm)&#45;&gt;versicolor -->
<g id="edge5" class="edge"><title>sepal width (cm)&#45;&gt;versicolor</title>
<path fill="none" stroke="red" stroke-width="1.43551" stroke-dasharray="1,5" d="M86.1278,-121.726C119.054,-107.47 185.208,-78.737 195.566,-73.5391 202.917,-69.8504 210.623,-65.7122 218.023,-61.595"/>
<polygon fill="red" stroke="red" stroke-width="1.43551" points="220.194,-64.3889 227.183,-56.4264 216.754,-58.2924 220.194,-64.3889"/>
</g>
<!-- sepal width (cm)&#45;&gt;virginica -->
<g id="edge6" class="edge"><title>sepal width (cm)&#45;&gt;virginica</title>
<path fill="none" stroke="red" stroke-width="0.320241" d="M67.9207,-121.589C68.3285,-112.212 69.0291,-96.1021 69.7077,-80.4961"/>
<polygon fill="red" stroke="red" stroke-width="0.320241" points="73.2094,-80.532 70.1473,-70.3894 66.216,-80.2279 73.2094,-80.532"/>
</g>
<!-- petal length (cm) -->
<g id="node3" class="node"><title>petal length (cm)</title>
<polygon fill="lightgray" stroke="black" points="201.066,-139.752 124.066,-139.752 124.066,-121.752 201.066,-121.752 201.066,-139.752"/>
<text text-anchor="middle" x="162.566" y="-128.552" font-family="Times New Roman,serif" font-size="9.00">petal length (cm)</text>
</g>
<!-- petal length (cm)&#45;&gt;setosa -->
<g id="edge7" class="edge"><title>petal length (cm)&#45;&gt;setosa</title>
<path fill="none" stroke="red" stroke-width="1.20461" d="M162.211,-121.589C161.755,-111.103 160.933,-92.1983 160.185,-74.9934"/>
<polygon fill="red" stroke="red" stroke-width="1.20461" points="163.663,-74.4296 159.732,-64.5911 156.67,-74.7338 163.663,-74.4296"/>
</g>
<!-- petal length (cm)&#45;&gt;versicolor -->
<g id="edge8" class="edge"><title>petal length (cm)&#45;&gt;versicolor</title>
<path fill="none" stroke="red" stroke-width="2.70278" stroke-dasharray="1,5" d="M171.085,-121.589C183.076,-110.1 205.615,-88.5048 224.811,-70.112"/>
<polygon fill="red" stroke="red" stroke-width="2.70278" points="227.447,-72.4335 232.246,-62.9879 222.604,-67.3791 227.447,-72.4335"/>
</g>
<!-- petal length (cm)&#45;&gt;virginica -->
<g id="edge9" class="edge"><title>petal length (cm)&#45;&gt;virginica</title>
<path fill="none" stroke="red" stroke-width="0.796827" stroke-dasharray="1,5" d="M154.49,-121.589C142.739,-109.712 120.304,-87.0341 101.73,-68.2594"/>
<polygon fill="red" stroke="red" stroke-width="0.796827" points="104.092,-65.6708 94.5712,-61.0234 99.116,-70.5939 104.092,-65.6708"/>
</g>
<!-- petal width (cm) -->
<g id="node4" class="node"><title>petal width (cm)</title>
<polygon fill="lightgray" stroke="black" points="201.066,-205.966 124.066,-205.966 124.066,-187.966 201.066,-187.966 201.066,-205.966"/>
<text text-anchor="middle" x="162.566" y="-194.766" font-family="Times New Roman,serif" font-size="9.00">petal width (cm)</text>
</g>
<!-- petal width (cm)&#45;&gt;setosa -->
<g id="edge10" class="edge"><title>petal width (cm)&#45;&gt;setosa</title>
<path fill="none" stroke="red" stroke-width="1.73865" d="M123.87,-195.901C90.252,-193.529 43.3308,-184.142 19.5658,-151.966 8.36328,-136.798 8.87952,-125.075 19.5658,-109.539 44.9192,-72.6801 74.713,-95.7166 113.566,-73.5391 119.254,-70.2924 124.983,-66.3597 130.358,-62.306"/>
<polygon fill="red" stroke="red" stroke-width="1.73865" points="132.773,-64.859 138.456,-55.9177 128.437,-59.3631 132.773,-64.859"/>
</g>
<!-- petal width (cm)&#45;&gt;versicolor -->
<g id="edge11" class="edge"><title>petal width (cm)&#45;&gt;versicolor</title>
<path fill="none" stroke="green" stroke-width="0.7387" stroke-dasharray="1,5" d="M201.195,-196.01C235.064,-193.735 282.54,-184.43 306.566,-151.966 324.419,-127.843 308.546,-96.0866 290.41,-72.187"/>
<polygon fill="green" stroke="green" stroke-width="0.7387" points="292.923,-69.7243 283.952,-64.0865 287.449,-74.0877 292.923,-69.7243"/>
</g>
<!-- petal width (cm)&#45;&gt;virginica -->
<g id="edge12" class="edge"><title>petal width (cm)&#45;&gt;virginica</title>
<path fill="none" stroke="green" stroke-width="0.818555" d="M123.754,-190.343C82.5807,-183.491 21.5631,-170.489 7.56577,-151.966 -13.2948,-124.359 13.2941,-89.1981 38.2719,-65.2327"/>
<polygon fill="green" stroke="green" stroke-width="0.818555" points="40.9433,-67.53 45.9176,-58.1754 36.1955,-62.3863 40.9433,-67.53"/>
</g>
<!-- 302 -->
<g id="node8" class="node"><title>302</title>
<ellipse fill="white" stroke="black" cx="374.566" cy="-130.752" rx="21.4286" ry="21.4286"/>
<text text-anchor="middle" x="374.566" y="-128.552" font-family="Times New Roman,serif" font-size="9.00">302</text>
</g>
<!-- petal width (cm)&#45;&gt;302 -->
<g id="edge13" class="edge"><title>petal width (cm)&#45;&gt;302</title>
<path fill="none" stroke="green" stroke-width="0.164465" d="M201.171,-189.599C237.697,-182.829 293.614,-170.516 339.566,-151.966 342.465,-150.795 345.416,-149.419 348.312,-147.946"/>
<polygon fill="green" stroke="green" stroke-width="0.164465" points="350.17,-150.919 357.248,-143.035 346.798,-144.784 350.17,-150.919"/>
</g>
<!-- 302&#45;&gt;versicolor -->
<g id="edge14" class="edge"><title>302&#45;&gt;versicolor</title>
<path fill="none" stroke="red" stroke-width="0.39531" d="M358.436,-116.963C342.097,-104.006 316.264,-83.522 294.966,-66.633"/>
<polygon fill="red" stroke="red" stroke-width="0.39531" points="297.064,-63.8302 287.054,-60.3594 292.715,-69.3151 297.064,-63.8302"/>
</g>
</g>
</svg>
