<?xml version="1.0" encoding="UTF-8" standalone="no"?>
<!DOCTYPE svg PUBLIC "-//W3C//DTD SVG 1.1//EN"
 "http://www.w3.org/Graphics/SVG/1.1/DTD/svg11.dtd">
<!-- Generated by graphviz version 2.38.0 (20140413.2041)
 -->
<!-- Title: %3 Pages: 1 -->
<svg width="182pt" height="187pt"
 viewBox="0.00 0.00 181.50 187.10" xmlns="http://www.w3.org/2000/svg" xmlns:xlink="http://www.w3.org/1999/xlink">
<g id="graph0" class="graph" transform="scale(1 1) rotate(0) translate(4 183.095)">
<title>%3</title>
<polygon fill="white" stroke="none" points="-4,4 -4,-183.095 177.5,-183.095 177.5,4 -4,4"/>
<!-- sepal length (cm) -->
<g id="node1" class="node"><title>sepal length (cm)</title>
<polygon fill="lightgray" stroke="black" points="78,-179.095 0,-179.095 0,-161.095 78,-161.095 78,-179.095"/>
<text text-anchor="middle" x="39" y="-167.895" font-family="Times New Roman,serif" font-size="9.00">sepal length (cm)</text>
</g>
<!-- petal length (cm) -->
<g id="node2" class="node"><title>petal length (cm)</title>
<polygon fill="lightgray" stroke="black" points="173.5,-179.095 96.5,-179.095 96.5,-161.095 173.5,-161.095 173.5,-179.095"/>
<text text-anchor="middle" x="135" y="-167.895" font-family="Times New Roman,serif" font-size="9.00">petal length (cm)</text>
</g>
<!-- 120 -->
<g id="node4" class="node"><title>120</title>
<ellipse fill="white" stroke="black" cx="135" cy="-103.882" rx="21.4286" ry="21.4286"/>
<text text-anchor="middle" x="135" y="-101.682" font-family="Times New Roman,serif" font-size="9.00">120</text>
</g>
<!-- petal length (cm)&#45;&gt;120 -->
<g id="edge1" class="edge"><title>petal length (cm)&#45;&gt;120</title>
<path fill="none" stroke="green" stroke-width="0.138689" d="M135,-160.963C135,-154.42 135,-144.791 135,-135.351"/>
<polygon fill="green" stroke="green" stroke-width="0.138689" points="138.5,-135.338 135,-125.338 131.5,-135.338 138.5,-135.338"/>
</g>
<!-- label -->
<g id="node3" class="node"><title>label</title>
<ellipse fill="lightblue" stroke="black" cx="135" cy="-23.3345" rx="23.1702" ry="23.1702"/>
<text text-anchor="middle" x="135" y="-21.1345" font-family="Times New Roman,serif" font-size="9.00">label</text>
</g>
<!-- 120&#45;&gt;label -->
<g id="edge2" class="edge"><title>120&#45;&gt;label</title>
<path fill="none" stroke="red" stroke-width="0.168598" d="M135,-82.6543C135,-74.8338 135,-65.684 135,-56.9812"/>
<polygon fill="red" stroke="red" stroke-width="0.168598" points="138.5,-56.7068 135,-46.7068 131.5,-56.7069 138.5,-56.7068"/>
</g>
</g>
</svg>
