<?xml version="1.0" encoding="UTF-8" standalone="no"?>
<!DOCTYPE svg PUBLIC "-//W3C//DTD SVG 1.1//EN"
 "http://www.w3.org/Graphics/SVG/1.1/DTD/svg11.dtd">
<!-- Generated by graphviz version 2.38.0 (20140413.2041)
 -->
<!-- Title: %3 Pages: 1 -->
<svg width="856pt" height="405pt"
 viewBox="0.00 0.00 856.21 405.40" xmlns="http://www.w3.org/2000/svg" xmlns:xlink="http://www.w3.org/1999/xlink">
<g id="graph0" class="graph" transform="scale(1 1) rotate(0) translate(4 401.404)">
<title>%3</title>
<polygon fill="white" stroke="none" points="-4,4 -4,-401.404 852.213,-401.404 852.213,4 -4,4"/>
<!-- &#45;1 -->
<g id="node1" class="node"><title>&#45;1</title>
<polygon fill="lightgray" stroke="black" points="474,-174.338 450,-174.338 450,-156.338 474,-156.338 474,-174.338"/>
<text text-anchor="middle" x="462" y="-163.138" font-family="Times New Roman,serif" font-size="9.00">&#45;1</text>
</g>
<!-- 2 -->
<g id="node10" class="node"><title>2</title>
<ellipse fill="lightblue" stroke="black" cx="602" cy="-14.8492" rx="14.7" ry="14.7"/>
<text text-anchor="middle" x="602" y="-12.6492" font-family="Times New Roman,serif" font-size="9.00">2</text>
</g>
<!-- &#45;1&#45;&gt;2 -->
<g id="edge11" class="edge"><title>&#45;1&#45;&gt;2</title>
<path fill="none" stroke="green" stroke-width="0.405086" stroke-dasharray="1,5" d="M461.881,-156.105C462.052,-137.674 464.962,-92.6021 488,-65.6985 511.092,-38.7319 551.522,-25.8442 577.509,-20.0728"/>
<polygon fill="green" stroke="green" stroke-width="0.405086" points="578.242,-23.4955 587.345,-18.0744 576.848,-16.6357 578.242,-23.4955"/>
</g>
<!-- 4 -->
<g id="node12" class="node"><title>4</title>
<ellipse fill="lightblue" stroke="black" cx="389" cy="-86.9117" rx="14.7" ry="14.7"/>
<text text-anchor="middle" x="389" y="-84.7117" font-family="Times New Roman,serif" font-size="9.00">4</text>
</g>
<!-- &#45;1&#45;&gt;4 -->
<g id="edge15" class="edge"><title>&#45;1&#45;&gt;4</title>
<path fill="none" stroke="red" stroke-width="0.28541" d="M454.188,-156.159C442.787,-144.223 421.298,-121.725 406.114,-105.829"/>
<polygon fill="red" stroke="red" stroke-width="0.28541" points="408.274,-103.023 398.836,-98.209 403.212,-107.858 408.274,-103.023"/>
</g>
<!-- &#45;2 -->
<g id="node2" class="node"><title>&#45;2</title>
<polygon fill="lightgray" stroke="black" points="164,-331.191 140,-331.191 140,-313.191 164,-313.191 164,-331.191"/>
<text text-anchor="middle" x="152" y="-319.991" font-family="Times New Roman,serif" font-size="9.00">&#45;2</text>
</g>
<!-- 1 -->
<g id="node9" class="node"><title>1</title>
<ellipse fill="lightblue" stroke="black" cx="205" cy="-165.338" rx="14.7" ry="14.7"/>
<text text-anchor="middle" x="205" y="-163.138" font-family="Times New Roman,serif" font-size="9.00">1</text>
</g>
<!-- &#45;2&#45;&gt;1 -->
<g id="edge36" class="edge"><title>&#45;2&#45;&gt;1</title>
<path fill="none" stroke="red" stroke-width="0.344468" stroke-dasharray="1,5" d="M154.85,-312.865C162.722,-289.865 184.98,-224.832 197.024,-189.642"/>
<polygon fill="red" stroke="red" stroke-width="0.344468" points="200.48,-190.353 200.407,-179.759 193.857,-188.087 200.48,-190.353"/>
</g>
<!-- 3 -->
<g id="node11" class="node"><title>3</title>
<ellipse fill="lightblue" stroke="black" cx="109" cy="-165.338" rx="14.7" ry="14.7"/>
<text text-anchor="middle" x="109" y="-163.138" font-family="Times New Roman,serif" font-size="9.00">3</text>
</g>
<!-- &#45;2&#45;&gt;3 -->
<g id="edge27" class="edge"><title>&#45;2&#45;&gt;3</title>
<path fill="none" stroke="green" stroke-width="0.204185" d="M149.688,-312.865C143.301,-289.865 125.243,-224.832 115.471,-189.642"/>
<polygon fill="green" stroke="green" stroke-width="0.204185" points="118.775,-188.458 112.727,-179.759 112.03,-190.331 118.775,-188.458"/>
</g>
<!-- &#45;2&#45;&gt;4 -->
<g id="edge4" class="edge"><title>&#45;2&#45;&gt;4</title>
<path fill="none" stroke="red" stroke-width="0.248037" d="M150.539,-312.845C146.166,-284.936 136.109,-193.826 181,-144.125 205.592,-116.898 314.626,-98.3907 364.252,-91.2267"/>
<polygon fill="red" stroke="red" stroke-width="0.248037" points="365.015,-94.6541 374.431,-89.7971 364.041,-87.7222 365.015,-94.6541"/>
</g>
<!-- 5 -->
<g id="node13" class="node"><title>5</title>
<ellipse fill="lightblue" stroke="black" cx="324" cy="-14.8492" rx="14.7" ry="14.7"/>
<text text-anchor="middle" x="324" y="-12.6492" font-family="Times New Roman,serif" font-size="9.00">5</text>
</g>
<!-- &#45;2&#45;&gt;5 -->
<g id="edge31" class="edge"><title>&#45;2&#45;&gt;5</title>
<path fill="none" stroke="green" stroke-width="0.352381" d="M143.922,-312.967C119.309,-286.886 49.0601,-204.204 85,-144.125 132.636,-64.495 248.532,-31.4522 299.389,-20.4559"/>
<polygon fill="green" stroke="green" stroke-width="0.352381" points="300.39,-23.8234 309.481,-18.3817 298.981,-16.9667 300.39,-23.8234"/>
</g>
<!-- 147 -->
<g id="node18" class="node"><title>147</title>
<ellipse fill="white" stroke="black" cx="239" cy="-243.765" rx="21.4286" ry="21.4286"/>
<text text-anchor="middle" x="239" y="-241.565" font-family="Times New Roman,serif" font-size="9.00">147</text>
</g>
<!-- &#45;2&#45;&gt;147 -->
<g id="edge37" class="edge"><title>&#45;2&#45;&gt;147</title>
<path fill="none" stroke="red" stroke-width="0.221858" stroke-dasharray="1,5" d="M161.311,-313.012C174.159,-301.725 197.758,-280.994 215.588,-265.332"/>
<polygon fill="red" stroke="red" stroke-width="0.221858" points="218.111,-267.773 223.314,-258.544 213.491,-262.514 218.111,-267.773"/>
</g>
<!-- &#45;3 -->
<g id="node3" class="node"><title>&#45;3</title>
<polygon fill="lightgray" stroke="black" points="382,-252.765 358,-252.765 358,-234.765 382,-234.765 382,-252.765"/>
<text text-anchor="middle" x="370" y="-241.565" font-family="Times New Roman,serif" font-size="9.00">&#45;3</text>
</g>
<!-- 0 -->
<g id="node8" class="node"><title>0</title>
<ellipse fill="lightblue" stroke="black" cx="583" cy="-165.338" rx="14.7" ry="14.7"/>
<text text-anchor="middle" x="583" y="-163.138" font-family="Times New Roman,serif" font-size="9.00">0</text>
</g>
<!-- &#45;3&#45;&gt;0 -->
<g id="edge10" class="edge"><title>&#45;3&#45;&gt;0</title>
<path fill="none" stroke="red" stroke-width="0.149479" d="M382.062,-238.437C416.272,-226.162 514.36,-190.967 559.612,-174.73"/>
<polygon fill="red" stroke="red" stroke-width="0.149479" points="560.939,-177.972 569.169,-171.301 558.575,-171.384 560.939,-177.972"/>
</g>
<!-- &#45;3&#45;&gt;1 -->
<g id="edge16" class="edge"><title>&#45;3&#45;&gt;1</title>
<path fill="none" stroke="green" stroke-width="0.179191" stroke-dasharray="1,5" d="M363.314,-234.735C359.494,-230.592 354.399,-225.75 349,-222.551 302.922,-195.253 282.083,-210.138 234,-186.551 230.761,-184.963 227.481,-183.038 224.349,-181.015"/>
<polygon fill="green" stroke="green" stroke-width="0.179191" points="226.278,-178.094 216.072,-175.252 222.279,-183.838 226.278,-178.094"/>
</g>
<!-- &#45;3&#45;&gt;2 -->
<g id="edge7" class="edge"><title>&#45;3&#45;&gt;2</title>
<path fill="none" stroke="red" stroke-width="0.768741" d="M362.755,-234.622C358.933,-230.645 354.005,-225.989 349,-222.551 317.86,-201.164 292.282,-218.423 272,-186.551 261.877,-170.643 264.052,-161.224 272,-144.125 325.748,-28.4903 509.09,-16.0304 576.696,-15.4633"/>
<polygon fill="red" stroke="red" stroke-width="0.768741" points="576.868,-18.9632 586.868,-15.4634 576.868,-11.9632 576.868,-18.9632"/>
</g>
<!-- &#45;3&#45;&gt;3 -->
<g id="edge30" class="edge"><title>&#45;3&#45;&gt;3</title>
<path fill="none" stroke="red" stroke-width="0.374297" d="M363.427,-234.534C359.64,-230.332 354.54,-225.497 349,-222.551 281.577,-186.701 255.129,-204.88 181,-186.551 164.83,-182.553 146.784,-177.486 132.803,-173.425"/>
<polygon fill="red" stroke="red" stroke-width="0.374297" points="133.584,-170.006 123.003,-170.55 131.614,-176.723 133.584,-170.006"/>
</g>
<!-- &#45;4 -->
<g id="node4" class="node"><title>&#45;4</title>
<polygon fill="lightgray" stroke="black" points="340,-252.765 316,-252.765 316,-234.765 340,-234.765 340,-252.765"/>
<text text-anchor="middle" x="328" y="-241.565" font-family="Times New Roman,serif" font-size="9.00">&#45;4</text>
</g>
<!-- &#45;4&#45;&gt;1 -->
<g id="edge8" class="edge"><title>&#45;4&#45;&gt;1</title>
<path fill="none" stroke="red" stroke-width="0.277377" stroke-dasharray="1,5" d="M318.175,-234.471C313.43,-230.64 307.57,-226.152 302,-222.551 273.282,-203.987 263.192,-204.361 234,-186.551 231.066,-184.761 228.028,-182.787 225.072,-180.795"/>
<polygon fill="red" stroke="red" stroke-width="0.277377" points="226.844,-177.765 216.635,-174.932 222.849,-183.513 226.844,-177.765"/>
</g>
<!-- &#45;5 -->
<g id="node5" class="node"><title>&#45;5</title>
<polygon fill="lightgray" stroke="black" points="462,-252.765 438,-252.765 438,-234.765 462,-234.765 462,-252.765"/>
<text text-anchor="middle" x="450" y="-241.565" font-family="Times New Roman,serif" font-size="9.00">&#45;5</text>
</g>
<!-- &#45;5&#45;&gt;0 -->
<g id="edge14" class="edge"><title>&#45;5&#45;&gt;0</title>
<path fill="none" stroke="red" stroke-width="0.748195" d="M459.255,-234.731C464.06,-230.782 470.139,-226.118 476,-222.551 508.617,-202.705 520.877,-205.541 554,-186.551 556.982,-184.842 560.046,-182.913 563.015,-180.943"/>
<polygon fill="red" stroke="red" stroke-width="0.748195" points="565.236,-183.662 571.456,-175.085 561.245,-177.911 565.236,-183.662"/>
</g>
<!-- &#45;5&#45;&gt;1 -->
<g id="edge3" class="edge"><title>&#45;5&#45;&gt;1</title>
<path fill="none" stroke="red" stroke-width="0.343114" stroke-dasharray="1,5" d="M437.84,-238.453C425.941,-234.269 407.283,-227.799 391,-222.551 333.096,-203.889 264.468,-183.624 228.961,-173.275"/>
<polygon fill="red" stroke="red" stroke-width="0.343114" points="229.634,-169.826 219.054,-170.395 227.679,-176.548 229.634,-169.826"/>
</g>
<!-- &#45;5&#45;&gt;2 -->
<g id="edge9" class="edge"><title>&#45;5&#45;&gt;2</title>
<path fill="none" stroke="green" stroke-width="0.478594" stroke-dasharray="1,5" d="M455.195,-234.536C461.941,-223.715 473.925,-204.026 483,-186.551 510.197,-134.179 501.443,-112.025 538,-65.6985 549.838,-50.6968 567.107,-37.5936 580.724,-28.5908"/>
<polygon fill="green" stroke="green" stroke-width="0.478594" points="582.894,-31.3586 589.455,-23.0402 579.139,-25.451 582.894,-31.3586"/>
</g>
<!-- &#45;5&#45;&gt;4 -->
<g id="edge5" class="edge"><title>&#45;5&#45;&gt;4</title>
<path fill="none" stroke="red" stroke-width="0.274956" stroke-dasharray="1,5" d="M439.517,-234.609C420.608,-219.846 382.592,-189.901 381,-186.551 369.582,-162.523 374.903,-131.475 380.891,-110.69"/>
<polygon fill="red" stroke="red" stroke-width="0.274956" points="384.24,-111.707 383.906,-101.117 377.564,-109.604 384.24,-111.707"/>
</g>
<!-- &#45;5&#45;&gt;5 -->
<g id="edge18" class="edge"><title>&#45;5&#45;&gt;5</title>
<path fill="none" stroke="red" stroke-width="0.133828" stroke-dasharray="1,5" d="M437.839,-237.407C420.37,-229.083 388.37,-211.377 371,-186.551 339.357,-141.326 328.98,-75.5593 325.605,-40.3189"/>
<polygon fill="red" stroke="red" stroke-width="0.133828" points="329.064,-39.6855 324.737,-30.0146 322.089,-40.2731 329.064,-39.6855"/>
</g>
<!-- 115 -->
<g id="node17" class="node"><title>115</title>
<ellipse fill="white" stroke="black" cx="411" cy="-165.338" rx="21.4286" ry="21.4286"/>
<text text-anchor="middle" x="411" y="-163.138" font-family="Times New Roman,serif" font-size="9.00">115</text>
</g>
<!-- &#45;5&#45;&gt;115 -->
<g id="edge28" class="edge"><title>&#45;5&#45;&gt;115</title>
<path fill="none" stroke="green" stroke-width="0.253311" stroke-dasharray="1,5" d="M445.826,-234.586C440.862,-224.856 432.316,-208.11 424.933,-193.642"/>
<polygon fill="green" stroke="green" stroke-width="0.253311" points="427.961,-191.876 420.298,-184.559 421.726,-195.057 427.961,-191.876"/>
</g>
<!-- 56 -->
<g id="node19" class="node"><title>56</title>
<ellipse fill="white" stroke="black" cx="565" cy="-86.9117" rx="18.2703" ry="18.2703"/>
<text text-anchor="middle" x="565" y="-84.7117" font-family="Times New Roman,serif" font-size="9.00">56</text>
</g>
<!-- &#45;5&#45;&gt;56 -->
<g id="edge21" class="edge"><title>&#45;5&#45;&gt;56</title>
<path fill="none" stroke="red" stroke-width="0.371974" d="M460.436,-234.723C476.779,-221.993 507.429,-197.523 516,-186.551 533.4,-164.278 547.042,-134.841 555.466,-113.938"/>
<polygon fill="red" stroke="red" stroke-width="0.371974" points="558.801,-115.019 559.175,-104.431 552.28,-112.475 558.801,-115.019"/>
</g>
<!-- 91 -->
<g id="node20" class="node"><title>91</title>
<ellipse fill="white" stroke="black" cx="748" cy="-165.338" rx="18.2703" ry="18.2703"/>
<text text-anchor="middle" x="748" y="-163.138" font-family="Times New Roman,serif" font-size="9.00">91</text>
</g>
<!-- &#45;5&#45;&gt;91 -->
<g id="edge35" class="edge"><title>&#45;5&#45;&gt;91</title>
<path fill="none" stroke="green" stroke-width="0.336817" d="M462.092,-238.228C473.94,-233.877 492.561,-227.288 509,-222.551 584.649,-200.755 675.543,-181.15 720.309,-171.919"/>
<polygon fill="green" stroke="green" stroke-width="0.336817" points="721.06,-175.338 730.154,-169.903 719.656,-168.48 721.06,-175.338"/>
</g>
<!-- &#45;6 -->
<g id="node6" class="node"><title>&#45;6</title>
<polygon fill="lightgray" stroke="black" points="600,-331.191 576,-331.191 576,-313.191 600,-313.191 600,-331.191"/>
<text text-anchor="middle" x="588" y="-319.991" font-family="Times New Roman,serif" font-size="9.00">&#45;6</text>
</g>
<!-- &#45;6&#45;&gt;0 -->
<g id="edge13" class="edge"><title>&#45;6&#45;&gt;0</title>
<path fill="none" stroke="green" stroke-width="0.385257" stroke-dasharray="1,5" d="M587.731,-312.865C586.995,-290.077 584.927,-226.03 583.784,-190.625"/>
<polygon fill="green" stroke="green" stroke-width="0.385257" points="587.269,-190.107 583.448,-180.225 580.273,-190.333 587.269,-190.107"/>
</g>
<!-- &#45;6&#45;&gt;4 -->
<g id="edge20" class="edge"><title>&#45;6&#45;&gt;4</title>
<path fill="none" stroke="green" stroke-width="0.167169" d="M592.439,-313.064C606.64,-285.847 647.714,-196.669 607,-144.125 583.309,-113.55 465.945,-96.6515 413.912,-90.5577"/>
<polygon fill="green" stroke="green" stroke-width="0.167169" points="414.187,-87.0666 403.857,-89.4203 413.4,-94.0223 414.187,-87.0666"/>
</g>
<!-- &#45;6&#45;&gt;5 -->
<g id="edge1" class="edge"><title>&#45;6&#45;&gt;5</title>
<path fill="none" stroke="red" stroke-width="0.131047" stroke-dasharray="1,5" d="M597.831,-312.855C608.839,-302.811 626.045,-284.795 633,-264.978 662.944,-179.656 663.889,-120.548 592,-65.6985 553.914,-36.6396 408.457,-22.3657 349.273,-17.6657"/>
<polygon fill="red" stroke="red" stroke-width="0.131047" points="349.195,-14.1496 338.956,-16.8749 348.66,-21.1291 349.195,-14.1496"/>
</g>
<!-- 132 -->
<g id="node14" class="node"><title>132</title>
<ellipse fill="white" stroke="black" cx="539" cy="-243.765" rx="21.4286" ry="21.4286"/>
<text text-anchor="middle" x="539" y="-241.565" font-family="Times New Roman,serif" font-size="9.00">132</text>
</g>
<!-- &#45;6&#45;&gt;132 -->
<g id="edge32" class="edge"><title>&#45;6&#45;&gt;132</title>
<path fill="none" stroke="green" stroke-width="0.27454" stroke-dasharray="1,5" d="M582.756,-313.012C576.336,-302.999 565.151,-285.553 555.697,-270.807"/>
<polygon fill="green" stroke="green" stroke-width="0.27454" points="558.436,-268.594 550.092,-262.065 552.543,-272.373 558.436,-268.594"/>
</g>
<!-- &#45;6&#45;&gt;147 -->
<g id="edge45" class="edge"><title>&#45;6&#45;&gt;147</title>
<path fill="none" stroke="red" stroke-width="0.415105" d="M575.862,-319.172C536.674,-312.568 410.094,-290.555 307,-264.978 294.426,-261.858 280.705,-257.89 268.902,-254.296"/>
<polygon fill="red" stroke="red" stroke-width="0.415105" points="269.688,-250.876 259.1,-251.266 267.62,-257.564 269.688,-250.876"/>
</g>
<!-- &#45;7 -->
<g id="node7" class="node"><title>&#45;7</title>
<polygon fill="lightgray" stroke="black" points="462,-397.404 438,-397.404 438,-379.404 462,-379.404 462,-397.404"/>
<text text-anchor="middle" x="450" y="-386.204" font-family="Times New Roman,serif" font-size="9.00">&#45;7</text>
</g>
<!-- &#45;7&#45;&gt;0 -->
<g id="edge23" class="edge"><title>&#45;7&#45;&gt;0</title>
<path fill="none" stroke="green" stroke-width="0.325683" d="M451.254,-379.075C455.444,-353.474 470.907,-274.532 509,-222.551 522.871,-203.623 544.869,-188.057 561.28,-178.143"/>
<polygon fill="green" stroke="green" stroke-width="0.325683" points="563.298,-181.019 570.194,-172.976 559.787,-174.963 563.298,-181.019"/>
</g>
<!-- &#45;7&#45;&gt;1 -->
<g id="edge2" class="edge"><title>&#45;7&#45;&gt;1</title>
<path fill="none" stroke="red" stroke-width="0.622708" stroke-dasharray="1,5" d="M439.55,-379.087C428.6,-370.326 410.946,-356.07 396,-343.404 355.779,-309.318 344.43,-302.107 307,-264.978 289.028,-247.151 286.986,-240.364 269,-222.551 254.519,-208.21 237.082,-193.019 224.068,-182.049"/>
<polygon fill="red" stroke="red" stroke-width="0.622708" points="226.149,-179.227 216.23,-175.501 221.661,-184.599 226.149,-179.227"/>
</g>
<!-- &#45;7&#45;&gt;2 -->
<g id="edge19" class="edge"><title>&#45;7&#45;&gt;2</title>
<path fill="none" stroke="red" stroke-width="0.185391" d="M462.154,-386.43C512.492,-381.676 702,-356.369 702,-244.765 702,-244.765 702,-244.765 702,-164.338 702,-107.197 650.423,-55.5439 621.351,-30.968"/>
<polygon fill="red" stroke="red" stroke-width="0.185391" points="623.422,-28.1397 613.471,-24.5024 618.982,-33.5513 623.422,-28.1397"/>
</g>
<!-- &#45;7&#45;&gt;3 -->
<g id="edge12" class="edge"><title>&#45;7&#45;&gt;3</title>
<path fill="none" stroke="red" stroke-width="0.298354" stroke-dasharray="1,5" d="M437.647,-387.611C384.346,-388.232 174.78,-387.777 131,-343.404 90.8028,-302.663 97.1688,-228.498 103.824,-190.377"/>
<polygon fill="red" stroke="red" stroke-width="0.298354" points="107.328,-190.686 105.759,-180.208 100.452,-189.377 107.328,-190.686"/>
</g>
<!-- &#45;7&#45;&gt;4 -->
<g id="edge17" class="edge"><title>&#45;7&#45;&gt;4</title>
<path fill="none" stroke="green" stroke-width="0.357446" stroke-dasharray="1,5" d="M447.625,-379.329C440.386,-355.081 417.469,-280.975 391,-222.551 383.447,-205.879 375.591,-204.269 371,-186.551 364.307,-160.722 372.082,-130.46 379.399,-110.334"/>
<polygon fill="green" stroke="green" stroke-width="0.357446" points="382.74,-111.399 383.104,-100.811 376.217,-108.861 382.74,-111.399"/>
</g>
<!-- &#45;7&#45;&gt;5 -->
<g id="edge6" class="edge"><title>&#45;7&#45;&gt;5</title>
<path fill="none" stroke="red" stroke-width="0.351001" stroke-dasharray="1,5" d="M437.968,-386.886C384.019,-384.41 164.39,-372.678 103,-343.404 45.7876,-316.123 0,-308.149 0,-244.765 0,-244.765 0,-244.765 0,-164.338 0,-33.1175 222.344,-17.4032 298.652,-15.8741"/>
<polygon fill="red" stroke="red" stroke-width="0.351001" points="298.855,-19.3718 308.807,-15.7393 298.762,-12.3724 298.855,-19.3718"/>
</g>
<!-- &#45;7&#45;&gt;91 -->
<g id="edge24" class="edge"><title>&#45;7&#45;&gt;91</title>
<path fill="none" stroke="red" stroke-width="0.483346" stroke-dasharray="1,5" d="M462.125,-387.182C509.237,-386.063 679.322,-379.541 716,-343.404 755.969,-304.025 755.605,-232.741 751.829,-193.707"/>
<polygon fill="red" stroke="red" stroke-width="0.483346" points="755.289,-193.157 750.704,-183.605 748.332,-193.931 755.289,-193.157"/>
</g>
<!-- 156 -->
<g id="node21" class="node"><title>156</title>
<ellipse fill="white" stroke="black" cx="789" cy="-322.191" rx="21.4286" ry="21.4286"/>
<text text-anchor="middle" x="789" y="-319.991" font-family="Times New Roman,serif" font-size="9.00">156</text>
</g>
<!-- &#45;7&#45;&gt;156 -->
<g id="edge39" class="edge"><title>&#45;7&#45;&gt;156</title>
<path fill="none" stroke="green" stroke-width="0.428086" d="M462.266,-387.275C504.223,-386.495 645.419,-381.049 754,-343.404 756.954,-342.38 759.941,-341.1 762.858,-339.684"/>
<polygon fill="green" stroke="green" stroke-width="0.428086" points="764.684,-342.676 771.821,-334.845 761.359,-336.516 764.684,-342.676"/>
</g>
<!-- 0&#45;&gt;56 -->
<g id="edge26" class="edge"><title>0&#45;&gt;56</title>
<path fill="none" stroke="red" stroke-width="0.221936" d="M579.782,-150.675C577.451,-140.779 574.223,-127.074 571.378,-114.994"/>
<polygon fill="red" stroke="red" stroke-width="0.221936" points="574.708,-113.865 569.009,-104.934 567.895,-115.47 574.708,-113.865"/>
</g>
<!-- 132&#45;&gt;0 -->
<g id="edge33" class="edge"><title>132&#45;&gt;0</title>
<path fill="none" stroke="green" stroke-width="0.159021" d="M549.205,-225.039C555.695,-213.765 564.13,-199.114 570.949,-187.27"/>
<polygon fill="green" stroke="green" stroke-width="0.159021" points="574.048,-188.903 576.004,-178.49 567.981,-185.41 574.048,-188.903"/>
</g>
<!-- 161 -->
<g id="node15" class="node"><title>161</title>
<ellipse fill="white" stroke="black" cx="789" cy="-86.9117" rx="21.4286" ry="21.4286"/>
<text text-anchor="middle" x="789" y="-84.7117" font-family="Times New Roman,serif" font-size="9.00">161</text>
</g>
<!-- 161&#45;&gt;2 -->
<g id="edge42" class="edge"><title>161&#45;&gt;2</title>
<path fill="none" stroke="red" stroke-width="0.125851" d="M771.209,-74.6873C765.803,-71.5387 759.766,-68.2754 754,-65.6985 710.227,-46.134 656.364,-30.2861 625.928,-22.04"/>
<polygon fill="red" stroke="red" stroke-width="0.125851" points="626.759,-18.6392 616.195,-19.4466 624.957,-25.4032 626.759,-18.6392"/>
</g>
<!-- 168 -->
<g id="node16" class="node"><title>168</title>
<ellipse fill="white" stroke="black" cx="827" cy="-243.765" rx="21.4286" ry="21.4286"/>
<text text-anchor="middle" x="827" y="-241.565" font-family="Times New Roman,serif" font-size="9.00">168</text>
</g>
<!-- 168&#45;&gt;161 -->
<g id="edge46" class="edge"><title>168&#45;&gt;161</title>
<path fill="none" stroke="red" stroke-width="0.388878" d="M822.11,-222.837C815.555,-196.123 803.865,-148.489 796.275,-117.557"/>
<polygon fill="red" stroke="red" stroke-width="0.388878" points="799.654,-116.64 793.871,-107.762 792.855,-118.309 799.654,-116.64"/>
</g>
<!-- 168&#45;&gt;91 -->
<g id="edge44" class="edge"><title>168&#45;&gt;91</title>
<path fill="none" stroke="green" stroke-width="0.342006" d="M812.141,-228.389C799.736,-216.389 781.934,-199.166 768.23,-185.909"/>
<polygon fill="green" stroke="green" stroke-width="0.342006" points="770.327,-183.068 760.706,-178.631 765.46,-188.099 770.327,-183.068"/>
</g>
<!-- 115&#45;&gt;4 -->
<g id="edge29" class="edge"><title>115&#45;&gt;4</title>
<path fill="none" stroke="green" stroke-width="1.33177" stroke-dasharray="1,5" d="M405.334,-144.656C402.394,-134.44 398.781,-121.891 395.702,-111.195"/>
<polygon fill="green" stroke="green" stroke-width="1.33177" points="398.975,-109.912 392.845,-101.271 392.248,-111.849 398.975,-109.912"/>
</g>
<!-- 147&#45;&gt;1 -->
<g id="edge38" class="edge"><title>147&#45;&gt;1</title>
<path fill="none" stroke="red" stroke-width="0.295938" stroke-dasharray="1,5" d="M230.596,-223.873C225.898,-213.314 220.012,-200.084 215.07,-188.973"/>
<polygon fill="red" stroke="red" stroke-width="0.295938" points="218.119,-187.217 210.857,-179.503 211.724,-190.063 218.119,-187.217"/>
</g>
<!-- 56&#45;&gt;5 -->
<g id="edge22" class="edge"><title>56&#45;&gt;5</title>
<path fill="none" stroke="green" stroke-width="0.530488" stroke-dasharray="1,5" d="M547.279,-80.7598C504.631,-68.3616 396.241,-36.8509 347.902,-22.798"/>
<polygon fill="green" stroke="green" stroke-width="0.530488" points="348.599,-19.3557 338.02,-19.9249 346.645,-26.0775 348.599,-19.3557"/>
</g>
<!-- 91&#45;&gt;2 -->
<g id="edge25" class="edge"><title>91&#45;&gt;2</title>
<path fill="none" stroke="green" stroke-width="0.32477" d="M746.641,-146.859C744.09,-125.286 736.792,-88.6464 716,-65.6985 692.268,-39.5056 652.301,-26.4309 626.548,-20.4056"/>
<polygon fill="green" stroke="green" stroke-width="0.32477" points="626.982,-16.9191 616.47,-18.2373 625.51,-23.7625 626.982,-16.9191"/>
</g>
<!-- 91&#45;&gt;161 -->
<g id="edge41" class="edge"><title>91&#45;&gt;161</title>
<path fill="none" stroke="green" stroke-width="0.57424" stroke-dasharray="1,5" d="M756.297,-148.872C761.489,-139.194 768.322,-126.457 774.399,-115.128"/>
<polygon fill="green" stroke="green" stroke-width="0.57424" points="777.631,-116.508 779.274,-106.042 771.462,-113.199 777.631,-116.508"/>
</g>
<!-- 91&#45;&gt;56 -->
<g id="edge34" class="edge"><title>91&#45;&gt;56</title>
<path fill="none" stroke="green" stroke-width="0.177875" d="M731.112,-157.285C699.109,-143.92 629.429,-114.819 591.272,-98.8837"/>
<polygon fill="green" stroke="green" stroke-width="0.177875" points="592.424,-95.5718 581.847,-94.9477 589.726,-102.031 592.424,-95.5718"/>
</g>
<!-- 156&#45;&gt;168 -->
<g id="edge43" class="edge"><title>156&#45;&gt;168</title>
<path fill="none" stroke="red" stroke-width="0.173794" d="M798.199,-302.69C802.726,-293.584 808.276,-282.422 813.292,-272.334"/>
<polygon fill="red" stroke="red" stroke-width="0.173794" points="816.568,-273.607 817.886,-263.095 810.3,-270.491 816.568,-273.607"/>
</g>
<!-- 156&#45;&gt;91 -->
<g id="edge40" class="edge"><title>156&#45;&gt;91</title>
<path fill="none" stroke="green" stroke-width="0.358942" d="M783.807,-301.579C776.528,-274.086 763.267,-223.999 755.086,-193.101"/>
<polygon fill="green" stroke="green" stroke-width="0.358942" points="758.465,-192.189 752.522,-183.418 751.698,-193.981 758.465,-192.189"/>
</g>
</g>
</svg>
