<?xml version="1.0" encoding="UTF-8" standalone="no"?>
<!DOCTYPE svg PUBLIC "-//W3C//DTD SVG 1.1//EN"
 "http://www.w3.org/Graphics/SVG/1.1/DTD/svg11.dtd">
<!-- Generated by graphviz version 2.38.0 (20140413.2041)
 -->
<!-- Title: %3 Pages: 1 -->
<svg width="351pt" height="130pt"
 viewBox="0.00 0.00 350.50 129.88" xmlns="http://www.w3.org/2000/svg" xmlns:xlink="http://www.w3.org/1999/xlink">
<g id="graph0" class="graph" transform="scale(1 1) rotate(0) translate(4 125.882)">
<title>%3</title>
<polygon fill="white" stroke="none" points="-4,4 -4,-125.882 346.5,-125.882 346.5,4 -4,4"/>
<!-- left -->
<g id="node1" class="node"><title>left</title>
<polygon fill="lightgray" stroke="black" points="29,-121.882 0,-121.882 0,-103.882 29,-103.882 29,-121.882"/>
<text text-anchor="middle" x="14.5" y="-110.682" font-family="Times New Roman,serif" font-size="9.00">left</text>
</g>
<!-- direction -->
<g id="node8" class="node"><title>direction</title>
<ellipse fill="lightblue" stroke="black" cx="90.5" cy="-33.9411" rx="33.8824" ry="33.8824"/>
<text text-anchor="middle" x="90.5" y="-31.7411" font-family="Times New Roman,serif" font-size="9.00">direction</text>
</g>
<!-- left&#45;&gt;direction -->
<g id="edge3" class="edge"><title>left&#45;&gt;direction</title>
<path fill="none" stroke="green" stroke-width="0.116848" d="M22.6333,-103.648C31.4862,-94.6858 46.1813,-79.8086 59.6378,-66.1855"/>
<polygon fill="green" stroke="green" stroke-width="0.116848" points="62.4038,-68.3658 66.9412,-58.7917 57.4236,-63.4466 62.4038,-68.3658"/>
</g>
<!-- front -->
<g id="node2" class="node"><title>front</title>
<polygon fill="lightgray" stroke="black" points="82,-121.882 47,-121.882 47,-103.882 82,-103.882 82,-121.882"/>
<text text-anchor="middle" x="64.5" y="-110.682" font-family="Times New Roman,serif" font-size="9.00">front</text>
</g>
<!-- front&#45;&gt;direction -->
<g id="edge1" class="edge"><title>front&#45;&gt;direction</title>
<path fill="none" stroke="red" stroke-width="0.619236" d="M67.2825,-103.648C69.5893,-96.8216 73.0558,-86.5634 76.6113,-76.0416"/>
<polygon fill="red" stroke="red" stroke-width="0.619236" points="79.9853,-76.9898 79.8709,-66.3956 73.3537,-74.7488 79.9853,-76.9898"/>
</g>
<!-- right -->
<g id="node3" class="node"><title>right</title>
<polygon fill="lightgray" stroke="black" points="133,-121.882 100,-121.882 100,-103.882 133,-103.882 133,-121.882"/>
<text text-anchor="middle" x="116.5" y="-110.682" font-family="Times New Roman,serif" font-size="9.00">right</text>
</g>
<!-- right&#45;&gt;direction -->
<g id="edge4" class="edge"><title>right&#45;&gt;direction</title>
<path fill="none" stroke="green" stroke-width="0.11466" d="M113.718,-103.648C111.411,-96.8216 107.944,-86.5634 104.389,-76.0416"/>
<polygon fill="green" stroke="green" stroke-width="0.11466" points="107.646,-74.7488 101.129,-66.3956 101.015,-76.9898 107.646,-74.7488"/>
</g>
<!-- color -->
<g id="node4" class="node"><title>color</title>
<polygon fill="lightgray" stroke="black" points="239,-121.882 204,-121.882 204,-103.882 239,-103.882 239,-121.882"/>
<text text-anchor="middle" x="221.5" y="-110.682" font-family="Times New Roman,serif" font-size="9.00">color</text>
</g>
<!-- reward -->
<g id="node5" class="node"><title>reward</title>
<polygon fill="lightgray" stroke="black" points="298,-121.882 257,-121.882 257,-103.882 298,-103.882 298,-121.882"/>
<text text-anchor="middle" x="277.5" y="-110.682" font-family="Times New Roman,serif" font-size="9.00">reward</text>
</g>
<!-- False -->
<g id="node6" class="node"><title>False</title>
<polygon fill="lightgray" stroke="black" points="186,-121.882 151,-121.882 151,-103.882 186,-103.882 186,-121.882"/>
<text text-anchor="middle" x="168.5" y="-110.682" font-family="Times New Roman,serif" font-size="9.00">False</text>
</g>
<!-- False&#45;&gt;direction -->
<g id="edge2" class="edge"><title>False&#45;&gt;direction</title>
<path fill="none" stroke="green" stroke-width="0.112781" d="M160.153,-103.648C150.916,-94.5367 135.482,-79.3123 121.487,-65.5071"/>
<polygon fill="green" stroke="green" stroke-width="0.112781" points="123.917,-62.988 114.34,-58.4572 119.001,-67.9715 123.917,-62.988"/>
</g>
<!-- {} -->
<g id="node7" class="node"><title>{}</title>
<polygon fill="lightgray" stroke="black" points="342.5,-121.882 316.5,-121.882 316.5,-103.882 342.5,-103.882 342.5,-121.882"/>
<text text-anchor="middle" x="329.5" y="-110.682" font-family="Times New Roman,serif" font-size="9.00">{}</text>
</g>
</g>
</svg>
