<?xml version="1.0" encoding="UTF-8" standalone="no"?>
<!DOCTYPE svg PUBLIC "-//W3C//DTD SVG 1.1//EN"
 "http://www.w3.org/Graphics/SVG/1.1/DTD/svg11.dtd">
<!-- Generated by graphviz version 2.38.0 (20140413.2041)
 -->
<!-- Title: %3 Pages: 1 -->
<svg width="360pt" height="170pt"
 viewBox="0.00 0.00 360.21 170.12" xmlns="http://www.w3.org/2000/svg" xmlns:xlink="http://www.w3.org/1999/xlink">
<g id="graph0" class="graph" transform="scale(1 1) rotate(0) translate(4 166.125)">
<title>%3</title>
<polygon fill="white" stroke="none" points="-4,4 -4,-166.125 356.21,-166.125 356.21,4 -4,4"/>
<!-- &#45;1 -->
<g id="node1" class="node"><title>&#45;1</title>
<polygon fill="lightgray" stroke="black" points="175.062,-162.125 151.062,-162.125 151.062,-144.125 175.062,-144.125 175.062,-162.125"/>
<text text-anchor="middle" x="163.062" y="-150.925" font-family="Times New Roman,serif" font-size="9.00">&#45;1</text>
</g>
<!-- 2 -->
<g id="node10" class="node"><title>2</title>
<ellipse fill="lightblue" stroke="black" cx="223.062" cy="-86.9117" rx="14.7" ry="14.7"/>
<text text-anchor="middle" x="223.062" y="-84.7117" font-family="Times New Roman,serif" font-size="9.00">2</text>
</g>
<!-- &#45;1&#45;&gt;2 -->
<g id="edge19" class="edge"><title>&#45;1&#45;&gt;2</title>
<path fill="none" stroke="red" stroke-width="0.654688" d="M170.661,-143.992C179.56,-134.469 194.567,-118.408 206.246,-105.909"/>
<polygon fill="red" stroke="red" stroke-width="0.654688" points="209.073,-108.01 213.343,-98.3134 203.958,-103.231 209.073,-108.01"/>
</g>
<!-- 4 -->
<g id="node12" class="node"><title>4</title>
<ellipse fill="lightblue" stroke="black" cx="175.062" cy="-86.9117" rx="14.7" ry="14.7"/>
<text text-anchor="middle" x="175.062" y="-84.7117" font-family="Times New Roman,serif" font-size="9.00">4</text>
</g>
<!-- &#45;1&#45;&gt;4 -->
<g id="edge7" class="edge"><title>&#45;1&#45;&gt;4</title>
<path fill="none" stroke="green" stroke-width="0.308213" d="M164.582,-143.992C166.108,-135.827 168.532,-122.857 170.664,-111.445"/>
<polygon fill="green" stroke="green" stroke-width="0.308213" points="174.11,-112.059 172.507,-101.586 167.229,-110.773 174.11,-112.059"/>
</g>
<!-- &#45;2 -->
<g id="node2" class="node"><title>&#45;2</title>
<polygon fill="lightgray" stroke="black" points="217.062,-162.125 193.062,-162.125 193.062,-144.125 217.062,-144.125 217.062,-162.125"/>
<text text-anchor="middle" x="205.062" y="-150.925" font-family="Times New Roman,serif" font-size="9.00">&#45;2</text>
</g>
<!-- &#45;2&#45;&gt;2 -->
<g id="edge11" class="edge"><title>&#45;2&#45;&gt;2</title>
<path fill="none" stroke="red" stroke-width="0.357062" d="M207.342,-143.992C209.631,-135.827 213.267,-122.857 216.465,-111.445"/>
<polygon fill="red" stroke="red" stroke-width="0.357062" points="219.9,-112.16 219.229,-101.586 213.16,-110.27 219.9,-112.16"/>
</g>
<!-- 3 -->
<g id="node11" class="node"><title>3</title>
<ellipse fill="lightblue" stroke="black" cx="127.062" cy="-86.9117" rx="14.7" ry="14.7"/>
<text text-anchor="middle" x="127.062" y="-84.7117" font-family="Times New Roman,serif" font-size="9.00">3</text>
</g>
<!-- &#45;2&#45;&gt;3 -->
<g id="edge5" class="edge"><title>&#45;2&#45;&gt;3</title>
<path fill="none" stroke="red" stroke-width="0.244006" d="M195.07,-144.064C184.201,-135.276 166.335,-120.777 151.062,-108.125 149.489,-106.822 147.862,-105.467 146.23,-104.103"/>
<polygon fill="red" stroke="red" stroke-width="0.244006" points="148.172,-101.163 138.264,-97.4101 143.669,-106.522 148.172,-101.163"/>
</g>
<!-- &#45;2&#45;&gt;4 -->
<g id="edge13" class="edge"><title>&#45;2&#45;&gt;4</title>
<path fill="none" stroke="red" stroke-width="0.213612" d="M201.263,-143.992C197.272,-135.45 190.823,-121.647 185.322,-109.873"/>
<polygon fill="red" stroke="red" stroke-width="0.213612" points="188.403,-108.198 180.999,-100.62 182.061,-111.161 188.403,-108.198"/>
</g>
<!-- 5 -->
<g id="node13" class="node"><title>5</title>
<ellipse fill="lightblue" stroke="black" cx="271.062" cy="-86.9117" rx="14.7" ry="14.7"/>
<text text-anchor="middle" x="271.062" y="-84.7117" font-family="Times New Roman,serif" font-size="9.00">5</text>
</g>
<!-- &#45;2&#45;&gt;5 -->
<g id="edge12" class="edge"><title>&#45;2&#45;&gt;5</title>
<path fill="none" stroke="green" stroke-width="0.441544" d="M213.421,-143.992C223.417,-134.267 240.422,-117.722 253.379,-105.116"/>
<polygon fill="green" stroke="green" stroke-width="0.441544" points="256.098,-107.354 260.824,-97.8723 251.216,-102.337 256.098,-107.354"/>
</g>
<!-- &#45;3 -->
<g id="node3" class="node"><title>&#45;3</title>
<polygon fill="lightgray" stroke="black" points="114.062,-162.125 90.0622,-162.125 90.0622,-144.125 114.062,-144.125 114.062,-162.125"/>
<text text-anchor="middle" x="102.062" y="-150.925" font-family="Times New Roman,serif" font-size="9.00">&#45;3</text>
</g>
<!-- 0 -->
<g id="node8" class="node"><title>0</title>
<ellipse fill="lightblue" stroke="black" cx="59.0622" cy="-14.8492" rx="14.7" ry="14.7"/>
<text text-anchor="middle" x="59.0622" y="-12.6492" font-family="Times New Roman,serif" font-size="9.00">0</text>
</g>
<!-- &#45;3&#45;&gt;0 -->
<g id="edge16" class="edge"><title>&#45;3&#45;&gt;0</title>
<path fill="none" stroke="green" stroke-width="0.578914" stroke-dasharray="1,5" d="M99.5011,-144.008C93.0685,-123.622 76.0492,-69.6844 66.2623,-38.6679"/>
<polygon fill="green" stroke="green" stroke-width="0.578914" points="69.5933,-37.5929 63.2463,-29.1096 62.9177,-39.6993 69.5933,-37.5929"/>
</g>
<!-- &#45;3&#45;&gt;3 -->
<g id="edge18" class="edge"><title>&#45;3&#45;&gt;3</title>
<path fill="none" stroke="red" stroke-width="0.293203" d="M105.228,-143.992C108.48,-135.64 113.69,-122.258 118.205,-110.661"/>
<polygon fill="red" stroke="red" stroke-width="0.293203" points="121.561,-111.688 121.928,-101.1 115.038,-109.149 121.561,-111.688"/>
</g>
<!-- &#45;3&#45;&gt;4 -->
<g id="edge1" class="edge"><title>&#45;3&#45;&gt;4</title>
<path fill="none" stroke="red" stroke-width="0.131229" d="M111.308,-143.992C122.597,-134.062 141.967,-117.023 156.402,-104.326"/>
<polygon fill="red" stroke="red" stroke-width="0.131229" points="159.035,-106.671 164.232,-97.4384 154.412,-101.415 159.035,-106.671"/>
</g>
<!-- 112 -->
<g id="node14" class="node"><title>112</title>
<ellipse fill="white" stroke="black" cx="35.0622" cy="-86.9117" rx="21.4286" ry="21.4286"/>
<text text-anchor="middle" x="35.0622" y="-84.7117" font-family="Times New Roman,serif" font-size="9.00">112</text>
</g>
<!-- &#45;3&#45;&gt;112 -->
<g id="edge22" class="edge"><title>&#45;3&#45;&gt;112</title>
<path fill="none" stroke="green" stroke-width="0.346904" d="M93.5766,-143.992C84.5369,-135.329 69.8514,-121.254 57.4544,-109.373"/>
<polygon fill="green" stroke="green" stroke-width="0.346904" points="59.7436,-106.719 50.1022,-102.326 54.9001,-111.772 59.7436,-106.719"/>
</g>
<!-- &#45;4 -->
<g id="node4" class="node"><title>&#45;4</title>
<polygon fill="lightgray" stroke="black" points="44.0622,-162.125 20.0622,-162.125 20.0622,-144.125 44.0622,-144.125 44.0622,-162.125"/>
<text text-anchor="middle" x="32.0622" y="-150.925" font-family="Times New Roman,serif" font-size="9.00">&#45;4</text>
</g>
<!-- &#45;4&#45;&gt;0 -->
<g id="edge6" class="edge"><title>&#45;4&#45;&gt;0</title>
<path fill="none" stroke="green" stroke-width="0.204626" d="M25.1631,-144.025C18.5315,-135.663 8.9588,-121.925 5.06218,-108.125 -0.0616562,-89.9782 -2.50026,-82.9717 5.06218,-65.6985 11.8151,-50.2742 25.9559,-37.5054 38.073,-28.7531"/>
<polygon fill="green" stroke="green" stroke-width="0.204626" points="40.0878,-31.6157 46.404,-23.1094 36.1618,-25.8203 40.0878,-31.6157"/>
</g>
<!-- &#45;4&#45;&gt;3 -->
<g id="edge4" class="edge"><title>&#45;4&#45;&gt;3</title>
<path fill="none" stroke="red" stroke-width="0.512232" d="M44.094,-143.992C59.8693,-133.329 87.7708,-114.47 106.824,-101.591"/>
<polygon fill="red" stroke="red" stroke-width="0.512232" points="108.803,-104.478 115.128,-95.9783 104.883,-98.6786 108.803,-104.478"/>
</g>
<!-- &#45;5 -->
<g id="node5" class="node"><title>&#45;5</title>
<polygon fill="lightgray" stroke="black" points="343.062,-162.125 319.062,-162.125 319.062,-144.125 343.062,-144.125 343.062,-162.125"/>
<text text-anchor="middle" x="331.062" y="-150.925" font-family="Times New Roman,serif" font-size="9.00">&#45;5</text>
</g>
<!-- &#45;5&#45;&gt;0 -->
<g id="edge15" class="edge"><title>&#45;5&#45;&gt;0</title>
<path fill="none" stroke="red" stroke-width="0.167865" d="M335.739,-144.111C344.802,-127.412 362.254,-88.5518 343.062,-65.6985 310.036,-26.3703 147.514,-18.062 84.2895,-16.3131"/>
<polygon fill="red" stroke="red" stroke-width="0.167865" points="84.1068,-12.8078 74.0247,-16.0638 83.9367,-19.8057 84.1068,-12.8078"/>
</g>
<!-- 1 -->
<g id="node9" class="node"><title>1</title>
<ellipse fill="lightblue" stroke="black" cx="319.062" cy="-86.9117" rx="14.7" ry="14.7"/>
<text text-anchor="middle" x="319.062" y="-84.7117" font-family="Times New Roman,serif" font-size="9.00">1</text>
</g>
<!-- &#45;5&#45;&gt;1 -->
<g id="edge3" class="edge"><title>&#45;5&#45;&gt;1</title>
<path fill="none" stroke="red" stroke-width="0.244109" d="M329.542,-143.992C328.017,-135.827 325.593,-122.857 323.46,-111.445"/>
<polygon fill="red" stroke="red" stroke-width="0.244109" points="326.895,-110.773 321.618,-101.586 320.014,-112.059 326.895,-110.773"/>
</g>
<!-- &#45;5&#45;&gt;2 -->
<g id="edge10" class="edge"><title>&#45;5&#45;&gt;2</title>
<path fill="none" stroke="red" stroke-width="0.32938" d="M318.913,-146.781C302.149,-139.183 271.255,-124.367 247.062,-108.125 245.366,-106.986 243.652,-105.747 241.961,-104.462"/>
<polygon fill="red" stroke="red" stroke-width="0.32938" points="243.863,-101.498 233.898,-97.899 239.444,-106.926 243.863,-101.498"/>
</g>
<!-- &#45;6 -->
<g id="node6" class="node"><title>&#45;6</title>
<polygon fill="lightgray" stroke="black" points="301.062,-162.125 277.062,-162.125 277.062,-144.125 301.062,-144.125 301.062,-162.125"/>
<text text-anchor="middle" x="289.062" y="-150.925" font-family="Times New Roman,serif" font-size="9.00">&#45;6</text>
</g>
<!-- &#45;6&#45;&gt;1 -->
<g id="edge20" class="edge"><title>&#45;6&#45;&gt;1</title>
<path fill="none" stroke="green" stroke-width="0.188321" d="M292.862,-143.992C296.853,-135.45 303.301,-121.647 308.802,-109.873"/>
<polygon fill="green" stroke="green" stroke-width="0.188321" points="312.063,-111.161 313.125,-100.62 305.721,-108.198 312.063,-111.161"/>
</g>
<!-- &#45;6&#45;&gt;5 -->
<g id="edge14" class="edge"><title>&#45;6&#45;&gt;5</title>
<path fill="none" stroke="red" stroke-width="0.304594" d="M286.782,-143.992C284.494,-135.827 280.858,-122.857 277.659,-111.445"/>
<polygon fill="red" stroke="red" stroke-width="0.304594" points="280.965,-110.27 274.895,-101.586 274.224,-112.16 280.965,-110.27"/>
</g>
<!-- &#45;7 -->
<g id="node7" class="node"><title>&#45;7</title>
<polygon fill="lightgray" stroke="black" points="259.062,-162.125 235.062,-162.125 235.062,-144.125 259.062,-144.125 259.062,-162.125"/>
<text text-anchor="middle" x="247.062" y="-150.925" font-family="Times New Roman,serif" font-size="9.00">&#45;7</text>
</g>
<!-- &#45;7&#45;&gt;1 -->
<g id="edge21" class="edge"><title>&#45;7&#45;&gt;1</title>
<path fill="none" stroke="red" stroke-width="0.313727" d="M256.181,-143.992C267.316,-134.062 286.421,-117.023 300.657,-104.326"/>
<polygon fill="red" stroke="red" stroke-width="0.313727" points="303.247,-106.707 308.38,-97.4384 298.587,-101.482 303.247,-106.707"/>
</g>
<!-- &#45;7&#45;&gt;2 -->
<g id="edge9" class="edge"><title>&#45;7&#45;&gt;2</title>
<path fill="none" stroke="green" stroke-width="0.18582" stroke-dasharray="1,5" d="M244.023,-143.992C240.901,-135.64 235.899,-122.258 231.565,-110.661"/>
<polygon fill="green" stroke="green" stroke-width="0.18582" points="234.771,-109.242 227.991,-101.1 228.214,-111.692 234.771,-109.242"/>
</g>
<!-- &#45;7&#45;&gt;3 -->
<g id="edge8" class="edge"><title>&#45;7&#45;&gt;3</title>
<path fill="none" stroke="green" stroke-width="0.126676" d="M234.85,-147.016C212.495,-137.586 165.929,-117.546 151.062,-108.125 149.337,-107.031 147.602,-105.824 145.897,-104.561"/>
<polygon fill="green" stroke="green" stroke-width="0.126676" points="147.79,-101.591 137.811,-98.0331 143.393,-107.038 147.79,-101.591"/>
</g>
<!-- &#45;7&#45;&gt;4 -->
<g id="edge17" class="edge"><title>&#45;7&#45;&gt;4</title>
<path fill="none" stroke="red" stroke-width="0.108858" d="M237.943,-143.992C226.809,-134.062 207.704,-117.023 193.467,-104.326"/>
<polygon fill="red" stroke="red" stroke-width="0.108858" points="195.537,-101.482 185.744,-97.4384 190.878,-106.707 195.537,-101.482"/>
</g>
<!-- &#45;7&#45;&gt;5 -->
<g id="edge2" class="edge"><title>&#45;7&#45;&gt;5</title>
<path fill="none" stroke="red" stroke-width="0.329045" d="M250.102,-143.992C253.224,-135.64 258.225,-122.258 262.56,-110.661"/>
<polygon fill="red" stroke="red" stroke-width="0.329045" points="265.91,-111.692 266.133,-101.1 259.353,-109.242 265.91,-111.692"/>
</g>
<!-- 112&#45;&gt;0 -->
<g id="edge23" class="edge"><title>112&#45;&gt;0</title>
<path fill="none" stroke="red" stroke-width="0.154934" d="M41.7475,-66.3954C44.6585,-57.8975 48.0923,-47.8733 51.1312,-39.0018"/>
<polygon fill="red" stroke="red" stroke-width="0.154934" points="54.5327,-39.8723 54.4623,-29.2777 47.9104,-37.6038 54.5327,-39.8723"/>
</g>
</g>
</svg>
