<?xml version="1.0" encoding="UTF-8" standalone="no"?>
<!DOCTYPE svg PUBLIC "-//W3C//DTD SVG 1.1//EN"
 "http://www.w3.org/Graphics/SVG/1.1/DTD/svg11.dtd">
<!-- Generated by graphviz version 2.38.0 (20140413.2041)
 -->
<!-- Title: %3 Pages: 1 -->
<svg width="351pt" height="130pt"
 viewBox="0.00 0.00 351.00 129.88" xmlns="http://www.w3.org/2000/svg" xmlns:xlink="http://www.w3.org/1999/xlink">
<g id="graph0" class="graph" transform="scale(1 1) rotate(0) translate(4 125.882)">
<title>%3</title>
<polygon fill="white" stroke="none" points="-4,4 -4,-125.882 347,-125.882 347,4 -4,4"/>
<!-- left -->
<g id="node1" class="node"><title>left</title>
<polygon fill="lightgray" stroke="black" points="29,-121.882 0,-121.882 0,-103.882 29,-103.882 29,-121.882"/>
<text text-anchor="middle" x="14.5" y="-110.682" font-family="Times New Roman,serif" font-size="9.00">left</text>
</g>
<!-- front -->
<g id="node2" class="node"><title>front</title>
<polygon fill="lightgray" stroke="black" points="82,-121.882 47,-121.882 47,-103.882 82,-103.882 82,-121.882"/>
<text text-anchor="middle" x="64.5" y="-110.682" font-family="Times New Roman,serif" font-size="9.00">front</text>
</g>
<!-- right -->
<g id="node3" class="node"><title>right</title>
<polygon fill="lightgray" stroke="black" points="133,-121.882 100,-121.882 100,-103.882 133,-103.882 133,-121.882"/>
<text text-anchor="middle" x="116.5" y="-110.682" font-family="Times New Roman,serif" font-size="9.00">right</text>
</g>
<!-- direction -->
<g id="node8" class="node"><title>direction</title>
<ellipse fill="lightblue" stroke="black" cx="199.5" cy="-33.9411" rx="33.8824" ry="33.8824"/>
<text text-anchor="middle" x="199.5" y="-31.7411" font-family="Times New Roman,serif" font-size="9.00">direction</text>
</g>
<!-- right&#45;&gt;direction -->
<g id="edge4" class="edge"><title>right&#45;&gt;direction</title>
<path fill="none" stroke="red" stroke-width="0.166671" d="M125.382,-103.648C135.354,-94.4047 152.112,-78.8697 167.174,-64.9078"/>
<polygon fill="red" stroke="red" stroke-width="0.166671" points="169.896,-67.1568 174.85,-57.7917 165.137,-62.0232 169.896,-67.1568"/>
</g>
<!-- color -->
<g id="node4" class="node"><title>color</title>
<polygon fill="lightgray" stroke="black" points="343,-121.882 308,-121.882 308,-103.882 343,-103.882 343,-121.882"/>
<text text-anchor="middle" x="325.5" y="-110.682" font-family="Times New Roman,serif" font-size="9.00">color</text>
</g>
<!-- reward -->
<g id="node5" class="node"><title>reward</title>
<polygon fill="lightgray" stroke="black" points="192,-121.882 151,-121.882 151,-103.882 192,-103.882 192,-121.882"/>
<text text-anchor="middle" x="171.5" y="-110.682" font-family="Times New Roman,serif" font-size="9.00">reward</text>
</g>
<!-- reward&#45;&gt;direction -->
<g id="edge2" class="edge"><title>reward&#45;&gt;direction</title>
<path fill="none" stroke="red" stroke-width="0.465084" d="M174.496,-103.648C177.028,-96.6919 180.856,-86.1726 184.761,-75.442"/>
<polygon fill="red" stroke="red" stroke-width="0.465084" points="188.051,-76.636 188.182,-66.042 181.473,-74.2421 188.051,-76.636"/>
</g>
<!-- False -->
<g id="node6" class="node"><title>False</title>
<polygon fill="lightgray" stroke="black" points="245,-121.882 210,-121.882 210,-103.882 245,-103.882 245,-121.882"/>
<text text-anchor="middle" x="227.5" y="-110.682" font-family="Times New Roman,serif" font-size="9.00">False</text>
</g>
<!-- False&#45;&gt;direction -->
<g id="edge3" class="edge"><title>False&#45;&gt;direction</title>
<path fill="none" stroke="red" stroke-width="0.101292" d="M224.504,-103.648C221.972,-96.6919 218.144,-86.1726 214.239,-75.442"/>
<polygon fill="red" stroke="red" stroke-width="0.101292" points="217.527,-74.2421 210.818,-66.042 210.949,-76.636 217.527,-74.2421"/>
</g>
<!-- {} -->
<g id="node7" class="node"><title>{}</title>
<polygon fill="lightgray" stroke="black" points="289.5,-121.882 263.5,-121.882 263.5,-103.882 289.5,-103.882 289.5,-121.882"/>
<text text-anchor="middle" x="276.5" y="-110.682" font-family="Times New Roman,serif" font-size="9.00">{}</text>
</g>
<!-- {}&#45;&gt;direction -->
<g id="edge1" class="edge"><title>{}&#45;&gt;direction</title>
<path fill="none" stroke="green" stroke-width="0.2974" d="M268.26,-103.648C259.225,-94.6203 244.184,-79.5911 230.47,-65.8874"/>
<polygon fill="green" stroke="green" stroke-width="0.2974" points="232.582,-63.0497 223.034,-58.4572 227.634,-68.0014 232.582,-63.0497"/>
</g>
</g>
</svg>
