<?xml version="1.0" encoding="UTF-8" standalone="no"?>
<!DOCTYPE svg PUBLIC "-//W3C//DTD SVG 1.1//EN"
 "http://www.w3.org/Graphics/SVG/1.1/DTD/svg11.dtd">
<!-- Generated by graphviz version 2.38.0 (20140413.2041)
 -->
<!-- Title: %3 Pages: 1 -->
<svg width="355pt" height="130pt"
 viewBox="0.00 0.00 354.50 129.88" xmlns="http://www.w3.org/2000/svg" xmlns:xlink="http://www.w3.org/1999/xlink">
<g id="graph0" class="graph" transform="scale(1 1) rotate(0) translate(4 125.882)">
<title>%3</title>
<polygon fill="white" stroke="none" points="-4,4 -4,-125.882 350.5,-125.882 350.5,4 -4,4"/>
<!-- left -->
<g id="node1" class="node"><title>left</title>
<polygon fill="lightgray" stroke="black" points="29,-121.882 0,-121.882 0,-103.882 29,-103.882 29,-121.882"/>
<text text-anchor="middle" x="14.5" y="-110.682" font-family="Times New Roman,serif" font-size="9.00">left</text>
</g>
<!-- front -->
<g id="node2" class="node"><title>front</title>
<polygon fill="lightgray" stroke="black" points="82,-121.882 47,-121.882 47,-103.882 82,-103.882 82,-121.882"/>
<text text-anchor="middle" x="64.5" y="-110.682" font-family="Times New Roman,serif" font-size="9.00">front</text>
</g>
<!-- direction -->
<g id="node8" class="node"><title>direction</title>
<ellipse fill="lightblue" stroke="black" cx="143.5" cy="-33.9411" rx="33.8824" ry="33.8824"/>
<text text-anchor="middle" x="143.5" y="-31.7411" font-family="Times New Roman,serif" font-size="9.00">direction</text>
</g>
<!-- front&#45;&gt;direction -->
<g id="edge4" class="edge"><title>front&#45;&gt;direction</title>
<path fill="none" stroke="green" stroke-width="0.349392" d="M72.9544,-103.648C82.3097,-94.5367 97.9415,-79.3123 112.116,-65.5071"/>
<polygon fill="green" stroke="green" stroke-width="0.349392" points="114.633,-67.9416 119.355,-58.4572 109.749,-62.927 114.633,-67.9416"/>
</g>
<!-- right -->
<g id="node3" class="node"><title>right</title>
<polygon fill="lightgray" stroke="black" points="133,-121.882 100,-121.882 100,-103.882 133,-103.882 133,-121.882"/>
<text text-anchor="middle" x="116.5" y="-110.682" font-family="Times New Roman,serif" font-size="9.00">right</text>
</g>
<!-- right&#45;&gt;direction -->
<g id="edge2" class="edge"><title>right&#45;&gt;direction</title>
<path fill="none" stroke="red" stroke-width="0.342614" d="M119.389,-103.648C121.785,-96.8216 125.385,-86.5634 129.077,-76.0416"/>
<polygon fill="red" stroke="red" stroke-width="0.342614" points="132.453,-76.9904 132.462,-66.3956 125.848,-74.6725 132.453,-76.9904"/>
</g>
<!-- color -->
<g id="node4" class="node"><title>color</title>
<polygon fill="lightgray" stroke="black" points="294,-121.882 259,-121.882 259,-103.882 294,-103.882 294,-121.882"/>
<text text-anchor="middle" x="276.5" y="-110.682" font-family="Times New Roman,serif" font-size="9.00">color</text>
</g>
<!-- reward -->
<g id="node5" class="node"><title>reward</title>
<polygon fill="lightgray" stroke="black" points="192,-121.882 151,-121.882 151,-103.882 192,-103.882 192,-121.882"/>
<text text-anchor="middle" x="171.5" y="-110.682" font-family="Times New Roman,serif" font-size="9.00">reward</text>
</g>
<!-- reward&#45;&gt;direction -->
<g id="edge3" class="edge"><title>reward&#45;&gt;direction</title>
<path fill="none" stroke="red" stroke-width="0.486028" d="M168.504,-103.648C165.972,-96.6919 162.144,-86.1726 158.239,-75.442"/>
<polygon fill="red" stroke="red" stroke-width="0.486028" points="161.527,-74.2421 154.818,-66.042 154.949,-76.636 161.527,-74.2421"/>
</g>
<!-- done -->
<g id="node6" class="node"><title>done</title>
<polygon fill="lightgray" stroke="black" points="346.5,-121.882 312.5,-121.882 312.5,-103.882 346.5,-103.882 346.5,-121.882"/>
<text text-anchor="middle" x="329.5" y="-110.682" font-family="Times New Roman,serif" font-size="9.00">done</text>
</g>
<!-- info -->
<g id="node7" class="node"><title>info</title>
<polygon fill="lightgray" stroke="black" points="241,-121.882 210,-121.882 210,-103.882 241,-103.882 241,-121.882"/>
<text text-anchor="middle" x="225.5" y="-110.682" font-family="Times New Roman,serif" font-size="9.00">info</text>
</g>
<!-- info&#45;&gt;direction -->
<g id="edge1" class="edge"><title>info&#45;&gt;direction</title>
<path fill="none" stroke="green" stroke-width="0.326358" d="M216.725,-103.648C206.873,-94.4047 190.317,-78.8697 175.437,-64.9078"/>
<polygon fill="green" stroke="green" stroke-width="0.326358" points="177.54,-62.0819 167.853,-57.7917 172.751,-67.1866 177.54,-62.0819"/>
</g>
</g>
</svg>
