<?xml version="1.0" encoding="UTF-8" standalone="no"?>
<!DOCTYPE svg PUBLIC "-//W3C//DTD SVG 1.1//EN"
 "http://www.w3.org/Graphics/SVG/1.1/DTD/svg11.dtd">
<!-- Generated by graphviz version 2.38.0 (20140413.2041)
 -->
<!-- Title: %3 Pages: 1 -->
<svg width="326pt" height="238pt"
 viewBox="0.00 0.00 325.91 238.01" xmlns="http://www.w3.org/2000/svg" xmlns:xlink="http://www.w3.org/1999/xlink">
<g id="graph0" class="graph" transform="scale(1 1) rotate(0) translate(4 234.007)">
<title>%3</title>
<polygon fill="white" stroke="none" points="-4,4 -4,-234.007 321.907,-234.007 321.907,4 -4,4"/>
<!-- sepal length (cm) -->
<g id="node1" class="node"><title>sepal length (cm)</title>
<polygon fill="lightgray" stroke="black" points="230.694,-230.007 152.694,-230.007 152.694,-212.007 230.694,-212.007 230.694,-230.007"/>
<text text-anchor="middle" x="191.694" y="-218.807" font-family="Times New Roman,serif" font-size="9.00">sepal length (cm)</text>
</g>
<!-- setosa -->
<g id="node3" class="node"><title>setosa</title>
<ellipse fill="lightblue" stroke="black" cx="191.694" cy="-142.773" rx="27.6545" ry="27.6545"/>
<text text-anchor="middle" x="191.694" y="-140.573" font-family="Times New Roman,serif" font-size="9.00">setosa</text>
</g>
<!-- sepal length (cm)&#45;&gt;setosa -->
<g id="edge1" class="edge"><title>sepal length (cm)&#45;&gt;setosa</title>
<path fill="none" stroke="green" stroke-width="0.598019" d="M191.694,-211.849C191.694,-204.243 191.694,-192.34 191.694,-180.599"/>
<polygon fill="green" stroke="green" stroke-width="0.598019" points="195.194,-180.436 191.694,-170.436 188.194,-180.436 195.194,-180.436"/>
</g>
<!-- versicolor -->
<g id="node4" class="node"><title>versicolor</title>
<ellipse fill="lightblue" stroke="black" cx="143.694" cy="-36.7696" rx="36.5405" ry="36.5405"/>
<text text-anchor="middle" x="143.694" y="-34.5696" font-family="Times New Roman,serif" font-size="9.00">versicolor</text>
</g>
<!-- sepal length (cm)&#45;&gt;versicolor -->
<g id="edge2" class="edge"><title>sepal length (cm)&#45;&gt;versicolor</title>
<path fill="none" stroke="green" stroke-width="0.254413" stroke-dasharray="1,5" d="M201.779,-211.807C210.788,-203.774 223.361,-190.635 228.694,-176.007 238.812,-148.253 241.137,-136.332 228.694,-109.539 219.41,-89.5509 201.515,-73.1224 184.529,-61.0514"/>
<polygon fill="green" stroke="green" stroke-width="0.254413" points="186.025,-57.8385 175.78,-55.1405 182.107,-63.6389 186.025,-57.8385"/>
</g>
<!-- virginica -->
<g id="node5" class="node"><title>virginica</title>
<ellipse fill="lightblue" stroke="black" cx="112.694" cy="-142.773" rx="33.4697" ry="33.4697"/>
<text text-anchor="middle" x="112.694" y="-140.573" font-family="Times New Roman,serif" font-size="9.00">virginica</text>
</g>
<!-- sepal length (cm)&#45;&gt;virginica -->
<g id="edge3" class="edge"><title>sepal length (cm)&#45;&gt;virginica</title>
<path fill="none" stroke="red" stroke-width="0.217309" stroke-dasharray="1,5" d="M183.239,-211.849C173.748,-202.69 157.798,-187.298 143.462,-173.464"/>
<polygon fill="red" stroke="red" stroke-width="0.217309" points="145.782,-170.839 136.156,-166.414 140.921,-175.876 145.782,-170.839"/>
</g>
<!-- petal length (cm) -->
<g id="node2" class="node"><title>petal length (cm)</title>
<polygon fill="lightgray" stroke="black" points="106.194,-230.007 29.1935,-230.007 29.1935,-212.007 106.194,-212.007 106.194,-230.007"/>
<text text-anchor="middle" x="67.6935" y="-218.807" font-family="Times New Roman,serif" font-size="9.00">petal length (cm)</text>
</g>
<!-- petal length (cm)&#45;&gt;setosa -->
<g id="edge4" class="edge"><title>petal length (cm)&#45;&gt;setosa</title>
<path fill="none" stroke="red" stroke-width="1.05713" d="M87.1207,-211.86C105.274,-203.865 132.789,-190.751 154.694,-176.007 157.847,-173.884 161.026,-171.522 164.125,-169.068"/>
<polygon fill="red" stroke="red" stroke-width="1.05713" points="166.619,-171.546 172.07,-162.462 162.143,-166.164 166.619,-171.546"/>
</g>
<!-- petal length (cm)&#45;&gt;versicolor -->
<g id="edge5" class="edge"><title>petal length (cm)&#45;&gt;versicolor</title>
<path fill="none" stroke="green" stroke-width="1.30982" stroke-dasharray="1,5" d="M50.1753,-211.988C36.6288,-204.724 18.8527,-192.613 10.6935,-176.007 -2.33396,-149.493 -4.44348,-134.908 10.6935,-109.539 29.5577,-77.9242 67.6983,-59.405 98.3173,-49.1235"/>
<polygon fill="green" stroke="green" stroke-width="1.30982" points="99.4842,-52.4253 107.96,-46.0686 97.3702,-45.7522 99.4842,-52.4253"/>
</g>
<!-- petal length (cm)&#45;&gt;virginica -->
<g id="edge6" class="edge"><title>petal length (cm)&#45;&gt;virginica</title>
<path fill="none" stroke="green" stroke-width="0.421299" d="M72.5093,-211.849C76.9902,-204.258 83.9988,-192.385 90.9162,-180.666"/>
<polygon fill="green" stroke="green" stroke-width="0.421299" points="94.0756,-182.199 96.1449,-171.808 88.0474,-178.64 94.0756,-182.199"/>
</g>
<!-- 278 -->
<g id="node7" class="node"><title>278</title>
<ellipse fill="white" stroke="black" cx="40.6935" cy="-142.773" rx="21.4286" ry="21.4286"/>
<text text-anchor="middle" x="40.6935" y="-140.573" font-family="Times New Roman,serif" font-size="9.00">278</text>
</g>
<!-- petal length (cm)&#45;&gt;278 -->
<g id="edge7" class="edge"><title>petal length (cm)&#45;&gt;278</title>
<path fill="none" stroke="green" stroke-width="0.166126" d="M64.8041,-211.849C61.4981,-202.514 55.8987,-186.705 50.9278,-172.669"/>
<polygon fill="green" stroke="green" stroke-width="0.166126" points="54.0988,-171.139 47.461,-162.881 47.5004,-173.476 54.0988,-171.139"/>
</g>
<!-- 418 -->
<g id="node6" class="node"><title>418</title>
<ellipse fill="white" stroke="black" cx="296.694" cy="-142.773" rx="21.4286" ry="21.4286"/>
<text text-anchor="middle" x="296.694" y="-140.573" font-family="Times New Roman,serif" font-size="9.00">418</text>
</g>
<!-- 418&#45;&gt;versicolor -->
<g id="edge9" class="edge"><title>418&#45;&gt;versicolor</title>
<path fill="none" stroke="red" stroke-width="0.231682" stroke-dasharray="1,5" d="M281.931,-126.967C275.892,-121.238 268.689,-114.806 261.694,-109.539 237.342,-91.2048 208.078,-73.3815 184.784,-60.0829"/>
<polygon fill="red" stroke="red" stroke-width="0.231682" points="186.278,-56.9067 175.85,-55.0355 182.835,-63.0015 186.278,-56.9067"/>
</g>
<!-- 278&#45;&gt;versicolor -->
<g id="edge8" class="edge"><title>278&#45;&gt;versicolor</title>
<path fill="none" stroke="red" stroke-width="0.800952" d="M54.5979,-126.556C59.6185,-121.135 65.3623,-115.018 70.6935,-109.539 83.318,-96.5641 97.4532,-82.5521 109.898,-70.3825"/>
<polygon fill="red" stroke="red" stroke-width="0.800952" points="112.683,-72.5558 117.4,-63.069 107.797,-67.5435 112.683,-72.5558"/>
</g>
</g>
</svg>
