<?xml version="1.0" encoding="UTF-8" standalone="no"?>
<!DOCTYPE svg PUBLIC "-//W3C//DTD SVG 1.1//EN"
 "http://www.w3.org/Graphics/SVG/1.1/DTD/svg11.dtd">
<!-- Generated by graphviz version 2.38.0 (20140413.2041)
 -->
<!-- Title: %3 Pages: 1 -->
<svg width="394pt" height="260pt"
 viewBox="0.00 0.00 394.49 259.99" xmlns="http://www.w3.org/2000/svg" xmlns:xlink="http://www.w3.org/1999/xlink">
<g id="graph0" class="graph" transform="scale(1 1) rotate(0) translate(4 255.99)">
<title>%3</title>
<polygon fill="white" stroke="none" points="-4,4 -4,-255.99 390.495,-255.99 390.495,4 -4,4"/>
<!-- Cart Position -->
<g id="node1" class="node"><title>Cart Position</title>
<polygon fill="lightgray" stroke="black" points="65,-251.99 0,-251.99 0,-233.99 65,-233.99 65,-251.99"/>
<text text-anchor="middle" x="32.5" y="-240.79" font-family="Times New Roman,serif" font-size="9.00">Cart Position</text>
</g>
<!-- Cart Velocity -->
<g id="node2" class="node"><title>Cart Velocity</title>
<polygon fill="lightgray" stroke="black" points="148,-251.99 83,-251.99 83,-233.99 148,-233.99 148,-251.99"/>
<text text-anchor="middle" x="115.5" y="-240.79" font-family="Times New Roman,serif" font-size="9.00">Cart Velocity</text>
</g>
<!-- Pole Angle -->
<g id="node3" class="node"><title>Pole Angle</title>
<polygon fill="lightgray" stroke="black" points="222.5,-251.99 166.5,-251.99 166.5,-233.99 222.5,-233.99 222.5,-251.99"/>
<text text-anchor="middle" x="194.5" y="-240.79" font-family="Times New Roman,serif" font-size="9.00">Pole Angle</text>
</g>
<!-- Pole Velocity At Tip -->
<g id="node4" class="node"><title>Pole Velocity At Tip</title>
<polygon fill="lightgray" stroke="black" points="334,-251.99 241,-251.99 241,-233.99 334,-233.99 334,-251.99"/>
<text text-anchor="middle" x="287.5" y="-240.79" font-family="Times New Roman,serif" font-size="9.00">Pole Velocity At Tip</text>
</g>
<!-- Push cart to the left or to the right -->
<g id="node5" class="node"><title>Push cart to the left or to the right</title>
<ellipse fill="lightblue" stroke="black" cx="287.5" cy="-98.9949" rx="98.9899" ry="98.9899"/>
<text text-anchor="middle" x="287.5" y="-96.7949" font-family="Times New Roman,serif" font-size="9.00">Push cart to the left or to the right</text>
</g>
<!-- Pole Velocity At Tip&#45;&gt;Push cart to the left or to the right -->
<g id="edge1" class="edge"><title>Pole Velocity At Tip&#45;&gt;Push cart to the left or to the right</title>
<path fill="none" stroke="green" stroke-width="0.563224" d="M287.5,-233.949C287.5,-227.885 287.5,-218.81 287.5,-208.188"/>
<polygon fill="green" stroke="green" stroke-width="0.563224" points="291,-208.039 287.5,-198.039 284,-208.039 291,-208.039"/>
</g>
</g>
</svg>
