<?xml version="1.0" encoding="UTF-8" standalone="no"?>
<!DOCTYPE svg PUBLIC "-//W3C//DTD SVG 1.1//EN"
 "http://www.w3.org/Graphics/SVG/1.1/DTD/svg11.dtd">
<!-- Generated by graphviz version 2.38.0 (20140413.2041)
 -->
<!-- Title: %3 Pages: 1 -->
<svg width="342pt" height="260pt"
 viewBox="0.00 0.00 342.00 259.99" xmlns="http://www.w3.org/2000/svg" xmlns:xlink="http://www.w3.org/1999/xlink">
<g id="graph0" class="graph" transform="scale(1 1) rotate(0) translate(4 255.99)">
<title>%3</title>
<polygon fill="white" stroke="none" points="-4,4 -4,-255.99 338,-255.99 338,4 -4,4"/>
<!-- Cart Position -->
<g id="node1" class="node"><title>Cart Position</title>
<polygon fill="lightgray" stroke="black" points="223,-251.99 158,-251.99 158,-233.99 223,-233.99 223,-251.99"/>
<text text-anchor="middle" x="190.5" y="-240.79" font-family="Times New Roman,serif" font-size="9.00">Cart Position</text>
</g>
<!-- Push cart to the left or to the right -->
<g id="node5" class="node"><title>Push cart to the left or to the right</title>
<ellipse fill="lightblue" stroke="black" cx="120.5" cy="-98.9949" rx="98.9899" ry="98.9899"/>
<text text-anchor="middle" x="120.5" y="-96.7949" font-family="Times New Roman,serif" font-size="9.00">Push cart to the left or to the right</text>
</g>
<!-- Cart Position&#45;&gt;Push cart to the left or to the right -->
<g id="edge6" class="edge"><title>Cart Position&#45;&gt;Push cart to the left or to the right</title>
<path fill="none" stroke="green" stroke-width="0.189741" d="M186.536,-233.949C182.571,-225.906 175.995,-212.566 168.49,-197.343"/>
<polygon fill="green" stroke="green" stroke-width="0.189741" points="171.538,-195.609 163.977,-188.187 165.259,-198.704 171.538,-195.609"/>
</g>
<!-- 159 -->
<g id="node6" class="node"><title>159</title>
<ellipse fill="white" stroke="black" cx="277.5" cy="-98.9949" rx="21.4286" ry="21.4286"/>
<text text-anchor="middle" x="277.5" y="-96.7949" font-family="Times New Roman,serif" font-size="9.00">159</text>
</g>
<!-- Cart Position&#45;&gt;159 -->
<g id="edge2" class="edge"><title>Cart Position&#45;&gt;159</title>
<path fill="none" stroke="green" stroke-width="0.176469" d="M198.744,-233.737C206.938,-225.255 219.542,-211.427 228.5,-197.99 243.371,-175.684 256.719,-148.237 265.714,-128.071"/>
<polygon fill="green" stroke="green" stroke-width="0.176469" points="268.964,-129.374 269.768,-118.81 262.552,-126.567 268.964,-129.374"/>
</g>
<!-- Cart Velocity -->
<g id="node2" class="node"><title>Cart Velocity</title>
<polygon fill="lightgray" stroke="black" points="65,-251.99 0,-251.99 0,-233.99 65,-233.99 65,-251.99"/>
<text text-anchor="middle" x="32.5" y="-240.79" font-family="Times New Roman,serif" font-size="9.00">Cart Velocity</text>
</g>
<!-- Cart Velocity&#45;&gt;Push cart to the left or to the right -->
<g id="edge5" class="edge"><title>Cart Velocity&#45;&gt;Push cart to the left or to the right</title>
<path fill="none" stroke="green" stroke-width="0.203154" d="M37.4834,-233.949C43.014,-225.025 52.5856,-209.58 63.309,-192.277"/>
<polygon fill="green" stroke="green" stroke-width="0.203154" points="66.3602,-193.998 68.6531,-183.654 60.4102,-190.31 66.3602,-193.998"/>
</g>
<!-- Pole Angle -->
<g id="node3" class="node"><title>Pole Angle</title>
<polygon fill="lightgray" stroke="black" points="139.5,-251.99 83.5,-251.99 83.5,-233.99 139.5,-233.99 139.5,-251.99"/>
<text text-anchor="middle" x="111.5" y="-240.79" font-family="Times New Roman,serif" font-size="9.00">Pole Angle</text>
</g>
<!-- Pole Angle&#45;&gt;Push cart to the left or to the right -->
<g id="edge4" class="edge"><title>Pole Angle&#45;&gt;Push cart to the left or to the right</title>
<path fill="none" stroke="green" stroke-width="0.558517" d="M112.01,-233.949C112.394,-227.885 112.969,-218.81 113.642,-208.188"/>
<polygon fill="green" stroke="green" stroke-width="0.558517" points="117.146,-208.24 114.286,-198.039 110.16,-207.797 117.146,-208.24"/>
</g>
<!-- Pole Velocity At Tip -->
<g id="node4" class="node"><title>Pole Velocity At Tip</title>
<polygon fill="lightgray" stroke="black" points="334,-251.99 241,-251.99 241,-233.99 334,-233.99 334,-251.99"/>
<text text-anchor="middle" x="287.5" y="-240.79" font-family="Times New Roman,serif" font-size="9.00">Pole Velocity At Tip</text>
</g>
<!-- Pole Velocity At Tip&#45;&gt;Push cart to the left or to the right -->
<g id="edge1" class="edge"><title>Pole Velocity At Tip&#45;&gt;Push cart to the left or to the right</title>
<path fill="none" stroke="green" stroke-width="0.505809" d="M278.043,-233.949C263.285,-221.4 233.364,-195.959 203.524,-170.587"/>
<polygon fill="green" stroke="green" stroke-width="0.505809" points="205.423,-167.608 195.537,-163.797 200.888,-172.941 205.423,-167.608"/>
</g>
<!-- Pole Velocity At Tip&#45;&gt;159 -->
<g id="edge3" class="edge"><title>Pole Velocity At Tip&#45;&gt;159</title>
<path fill="none" stroke="green" stroke-width="0.389828" d="M286.934,-233.949C285.554,-214.361 281.963,-163.36 279.63,-130.243"/>
<polygon fill="green" stroke="green" stroke-width="0.389828" points="283.116,-129.911 278.922,-120.182 276.133,-130.403 283.116,-129.911"/>
</g>
</g>
</svg>
